<svg width="8" height="5" viewBox="0 0 8 5" fill="none" xmlns="http://www.w3.org/2000/svg">
<path d="M4.31216 4.69732L7.8722 1.13722C7.9546 1.05488 8 0.944961 8 0.827758C8 0.710556 7.9546 0.600638 7.8722 0.518298L7.61008 0.256121C7.43929 0.0855207 7.1617 0.0855207 6.99116 0.256121L4.00166 3.24562L1.00884 0.252804C0.926432 0.170463 0.816579 0.125 0.699441 0.125C0.582174 0.125 0.472322 0.170463 0.389851 0.252804L0.127804 0.51498C0.0453982 0.597386 4.51387e-07 0.707239 4.46264e-07 0.824441C4.41141e-07 0.941643 0.0453982 1.05156 0.127804 1.1339L3.69109 4.69732C3.77376 4.77986 3.88413 4.82519 4.00146 4.82493C4.11925 4.82519 4.22956 4.77986 4.31216 4.69732Z" fill="white"/>
</svg>
