<svg width="20" height="20" viewBox="0 0 20 20" fill="none" xmlns="http://www.w3.org/2000/svg">
<path d="M10.8861 5.16342C10.5928 5.45578 10.3375 5.75317 10.1199 6.05286C9.0007 6.0881 7.854 6.66473 6.77521 7.74063L4.89777 9.61319C3.78922 10.7188 3.20312 11.9127 3.20312 13.0656C3.20312 14.0244 3.59558 14.9019 4.36935 15.6737C5.13824 16.4406 6.0318 16.8361 6.9812 16.8361C7.17087 16.8361 7.36298 16.8202 7.55661 16.7885C8.52554 16.6293 9.52255 16.0617 10.4399 15.1466L12.3174 13.2742C12.6106 12.9817 12.8659 12.6845 13.0835 12.3846C14.2026 12.3492 15.3494 11.7728 16.4281 10.6969L18.3054 8.82431C19.4141 7.71866 20 6.52481 20 5.37201C20 4.41315 19.6077 3.53561 18.8338 2.76382C17.9112 1.84372 16.8091 1.45828 15.6467 1.64902C14.6777 1.80817 13.6807 2.37579 12.7634 3.29086L10.8861 5.16342ZM17.7304 3.87009C18.2062 4.34479 18.4375 4.83597 18.4375 5.37201C18.4375 6.09024 17.9987 6.92337 17.202 7.71805L15.3247 9.59045C14.8593 10.0548 14.3849 10.3949 13.9267 10.5991C14.1792 9.46274 13.8821 8.35617 13.0197 7.40448L11.8617 8.45352C13.0688 9.78561 12.1758 11.2086 11.214 12.1678L9.33655 14.0404C8.33466 15.0395 6.85104 15.9421 5.47272 14.5674C4.99695 14.0927 4.76562 13.6015 4.76562 13.0656C4.76562 12.3473 5.20447 11.5141 6.00128 10.7195L7.87857 8.84705C8.34396 8.38287 8.81836 8.04276 9.27643 7.83875C9.02374 8.97507 9.32098 10.0816 10.1836 11.0332L11.3412 9.98383C10.1343 8.65219 11.0275 7.22916 11.9894 6.26968L13.8667 4.39713C14.8686 3.39798 16.3521 2.49542 17.7304 3.87009ZM19.4348 9.8912C19.6371 9.68948 19.8253 9.48395 20 9.27567V17.6562C20 18.9487 18.9487 20 17.6562 20H2.34375C1.05133 20 0 18.9487 0 17.6562V2.34375C0 1.05133 1.05133 0 2.34375 0H13.8297L12.2658 1.5625H2.34375C1.91299 1.5625 1.5625 1.91299 1.5625 2.34375V17.6562C1.5625 18.087 1.91299 18.4375 2.34375 18.4375H17.6562C18.087 18.4375 18.4375 18.087 18.4375 17.6562V10.8859L19.4348 9.8912Z" fill="darkgray"/>
</svg>
