<svg width="1096" height="189" viewBox="0 0 1096 189" fill="none" xmlns="http://www.w3.org/2000/svg">
<path d="M42.043 76H11.208V22.46H42.043V31.7617H22.5605V43.5171H40.688V52.8188H22.5605V66.625H42.043V76ZM78.3711 76L76.2104 70.4336H75.9175C74.0376 72.8018 72.0967 74.4497 70.0947 75.3774C68.1172 76.2808 65.5293 76.7324 62.3311 76.7324C58.4004 76.7324 55.2998 75.6094 53.0293 73.3633C50.7832 71.1172 49.6602 67.9189 49.6602 63.7686C49.6602 59.4229 51.1738 56.2246 54.2012 54.1738C57.2529 52.0986 61.8428 50.9512 67.9707 50.7314L75.0752 50.5117V48.7173C75.0752 44.5669 72.9512 42.4917 68.7031 42.4917C65.4316 42.4917 61.5864 43.4805 57.1675 45.458L53.4688 37.9141C58.1807 35.4482 63.4053 34.2153 69.1426 34.2153C74.6357 34.2153 78.8472 35.4116 81.7769 37.8042C84.7065 40.1968 86.1714 43.8345 86.1714 48.7173V76H78.3711ZM75.0752 57.0303L70.7539 57.1768C67.5068 57.2744 65.0898 57.8604 63.5029 58.9346C61.916 60.0088 61.1226 61.6445 61.1226 63.8418C61.1226 66.9912 62.9292 68.5659 66.5425 68.5659C69.1304 68.5659 71.1934 67.8213 72.7314 66.332C74.2939 64.8428 75.0752 62.8652 75.0752 60.3994V57.0303ZM126.271 63.8418C126.271 68.041 124.807 71.2393 121.877 73.4365C118.972 75.6338 114.614 76.7324 108.803 76.7324C105.825 76.7324 103.286 76.5249 101.186 76.1099C99.0864 75.7192 97.1211 75.1333 95.29 74.3521V65.1235C97.3652 66.1001 99.6968 66.918 102.285 67.5771C104.897 68.2363 107.192 68.5659 109.169 68.5659C113.222 68.5659 115.249 67.394 115.249 65.0503C115.249 64.1714 114.98 63.4634 114.443 62.9263C113.906 62.3647 112.978 61.7422 111.66 61.0586C110.341 60.3506 108.583 59.5327 106.386 58.605C103.237 57.2866 100.917 56.0659 99.4282 54.9429C97.9634 53.8198 96.8892 52.5381 96.2056 51.0977C95.5464 49.6328 95.2168 47.8384 95.2168 45.7144C95.2168 42.0767 96.6206 39.269 99.4282 37.2915C102.26 35.2896 106.264 34.2886 111.44 34.2886C116.372 34.2886 121.169 35.3628 125.832 37.5112L122.463 45.5679C120.412 44.689 118.496 43.9688 116.713 43.4072C114.931 42.8457 113.112 42.5649 111.257 42.5649C107.961 42.5649 106.313 43.4561 106.313 45.2383C106.313 46.2393 106.838 47.106 107.888 47.8384C108.962 48.5708 111.293 49.6572 114.882 51.0977C118.081 52.3916 120.424 53.6001 121.914 54.7231C123.403 55.8462 124.501 57.1401 125.209 58.605C125.917 60.0698 126.271 61.8154 126.271 63.8418ZM134.511 24.4741C134.511 20.8364 136.538 19.0176 140.59 19.0176C144.643 19.0176 146.669 20.8364 146.669 24.4741C146.669 26.2075 146.157 27.5625 145.131 28.5391C144.13 29.4912 142.617 29.9673 140.59 29.9673C136.538 29.9673 134.511 28.1362 134.511 24.4741ZM146.157 76H134.987V35.0576H146.157V76ZM174.868 42.2354C172.5 42.2354 170.644 42.9922 169.301 44.5059C167.958 45.9951 167.189 48.1191 166.994 50.8779H182.668C182.619 48.1191 181.899 45.9951 180.507 44.5059C179.116 42.9922 177.236 42.2354 174.868 42.2354ZM176.442 76.7324C169.851 76.7324 164.699 74.9136 160.988 71.2759C157.277 67.6382 155.422 62.4868 155.422 55.8218C155.422 48.9614 157.131 43.6636 160.549 39.9282C163.991 36.1685 168.74 34.2886 174.794 34.2886C180.581 34.2886 185.085 35.9365 188.308 39.2324C191.53 42.5283 193.142 47.0815 193.142 52.8921V58.312H166.738C166.86 61.4858 167.8 63.9639 169.558 65.7461C171.315 67.5283 173.781 68.4194 176.955 68.4194C179.421 68.4194 181.752 68.1631 183.95 67.6504C186.147 67.1377 188.442 66.3198 190.834 65.1968V73.8394C188.881 74.8159 186.794 75.5361 184.572 76C182.351 76.4883 179.641 76.7324 176.442 76.7324ZM230.788 63.8418C230.788 68.041 229.323 71.2393 226.394 73.4365C223.488 75.6338 219.13 76.7324 213.32 76.7324C210.341 76.7324 207.802 76.5249 205.703 76.1099C203.603 75.7192 201.638 75.1333 199.807 74.3521V65.1235C201.882 66.1001 204.213 66.918 206.801 67.5771C209.414 68.2363 211.708 68.5659 213.686 68.5659C217.739 68.5659 219.765 67.394 219.765 65.0503C219.765 64.1714 219.497 63.4634 218.959 62.9263C218.422 62.3647 217.495 61.7422 216.176 61.0586C214.858 60.3506 213.1 59.5327 210.903 58.605C207.753 57.2866 205.434 56.0659 203.945 54.9429C202.48 53.8198 201.406 52.5381 200.722 51.0977C200.063 49.6328 199.733 47.8384 199.733 45.7144C199.733 42.0767 201.137 39.269 203.945 37.2915C206.777 35.2896 210.781 34.2886 215.957 34.2886C220.888 34.2886 225.686 35.3628 230.349 37.5112L226.979 45.5679C224.929 44.689 223.012 43.9688 221.23 43.4072C219.448 42.8457 217.629 42.5649 215.773 42.5649C212.478 42.5649 210.83 43.4561 210.83 45.2383C210.83 46.2393 211.354 47.106 212.404 47.8384C213.479 48.5708 215.81 49.6572 219.399 51.0977C222.597 52.3916 224.941 53.6001 226.43 54.7231C227.919 55.8462 229.018 57.1401 229.726 58.605C230.434 60.0698 230.788 61.8154 230.788 63.8418ZM256.752 67.8335C258.706 67.8335 261.049 67.4062 263.784 66.5518V74.8647C261 76.1099 257.583 76.7324 253.53 76.7324C249.062 76.7324 245.803 75.6094 243.752 73.3633C241.726 71.0928 240.712 67.6992 240.712 63.1826V43.4438H235.366V38.7197L241.518 34.9844L244.741 26.3418H251.882V35.0576H263.344V43.4438H251.882V63.1826C251.882 64.7695 252.321 65.9414 253.2 66.6982C254.104 67.4551 255.288 67.8335 256.752 67.8335ZM341.97 76H328.164L323.952 71.8618C319.289 75.1089 314.016 76.7324 308.132 76.7324C302.175 76.7324 297.451 75.3652 293.959 72.6309C290.468 69.8965 288.723 66.1978 288.723 61.5347C288.723 58.1899 289.455 55.3457 290.92 53.002C292.409 50.6338 294.948 48.4243 298.537 46.3735C296.706 44.2739 295.375 42.272 294.545 40.3677C293.715 38.439 293.3 36.3394 293.3 34.0688C293.3 30.3579 294.716 27.3672 297.548 25.0967C300.405 22.8262 304.213 21.6909 308.974 21.6909C313.515 21.6909 317.141 22.7529 319.851 24.877C322.585 26.9766 323.952 29.7964 323.952 33.3364C323.952 36.2417 323.11 38.9028 321.425 41.3198C319.741 43.7124 317.019 45.9951 313.259 48.168L323.659 58.312C325.393 55.4556 326.894 51.7812 328.164 47.2891H339.809C338.93 50.585 337.722 53.8076 336.184 56.957C334.646 60.082 332.9 62.853 330.947 65.27L341.97 76ZM300.478 60.4727C300.478 62.5723 301.259 64.2446 302.822 65.4897C304.409 66.7349 306.435 67.3574 308.901 67.3574C311.977 67.3574 314.748 66.6128 317.214 65.1235L305.056 53.0386C303.64 54.1128 302.517 55.2358 301.687 56.4077C300.881 57.5796 300.478 58.9346 300.478 60.4727ZM313.625 34.5083C313.625 33.2144 313.186 32.2012 312.307 31.4688C311.428 30.7119 310.292 30.3335 308.901 30.3335C307.265 30.3335 305.971 30.7241 305.019 31.5054C304.091 32.2866 303.627 33.3975 303.627 34.8379C303.627 36.9863 304.787 39.3545 307.106 41.9424C309.206 40.7705 310.817 39.623 311.94 38.5C313.063 37.3525 313.625 36.022 313.625 34.5083ZM390.09 34.2886C394.924 34.2886 398.708 36.1807 401.442 39.9648C404.177 43.7246 405.544 48.8882 405.544 55.4556C405.544 62.2183 404.128 67.4551 401.296 71.166C398.488 74.877 394.655 76.7324 389.797 76.7324C384.987 76.7324 381.215 74.9868 378.481 71.4956H377.712L375.844 76H367.312V19.0176H378.481V32.2744C378.481 33.959 378.334 36.6567 378.042 40.3677H378.481C381.093 36.3149 384.963 34.2886 390.09 34.2886ZM386.501 43.2241C383.742 43.2241 381.728 44.0786 380.458 45.7876C379.189 47.4722 378.53 50.2676 378.481 54.1738V55.3823C378.481 59.7769 379.128 62.9263 380.422 64.8306C381.74 66.7349 383.815 67.687 386.647 67.687C388.942 67.687 390.761 66.6372 392.104 64.5376C393.471 62.4136 394.155 59.3374 394.155 55.3091C394.155 51.2808 393.471 48.2656 392.104 46.2637C390.737 44.2373 388.869 43.2241 386.501 43.2241ZM431.728 42.2354C429.36 42.2354 427.504 42.9922 426.162 44.5059C424.819 45.9951 424.05 48.1191 423.854 50.8779H439.528C439.479 48.1191 438.759 45.9951 437.368 44.5059C435.976 42.9922 434.096 42.2354 431.728 42.2354ZM433.303 76.7324C426.711 76.7324 421.56 74.9136 417.849 71.2759C414.138 67.6382 412.282 62.4868 412.282 55.8218C412.282 48.9614 413.991 43.6636 417.409 39.9282C420.852 36.1685 425.6 34.2886 431.655 34.2886C437.441 34.2886 441.945 35.9365 445.168 39.2324C448.391 42.5283 450.002 47.0815 450.002 52.8921V58.312H423.598C423.72 61.4858 424.66 63.9639 426.418 65.7461C428.176 67.5283 430.642 68.4194 433.815 68.4194C436.281 68.4194 438.613 68.1631 440.81 67.6504C443.007 67.1377 445.302 66.3198 447.695 65.1968V73.8394C445.742 74.8159 443.654 75.5361 441.433 76C439.211 76.4883 436.501 76.7324 433.303 76.7324ZM476.333 67.8335C478.286 67.8335 480.629 67.4062 483.364 66.5518V74.8647C480.581 76.1099 477.163 76.7324 473.11 76.7324C468.642 76.7324 465.383 75.6094 463.332 73.3633C461.306 71.0928 460.292 67.6992 460.292 63.1826V43.4438H454.946V38.7197L461.098 34.9844L464.321 26.3418H471.462V35.0576H482.924V43.4438H471.462V63.1826C471.462 64.7695 471.901 65.9414 472.78 66.6982C473.684 67.4551 474.868 67.8335 476.333 67.8335ZM508.925 67.8335C510.878 67.8335 513.222 67.4062 515.957 66.5518V74.8647C513.173 76.1099 509.755 76.7324 505.703 76.7324C501.235 76.7324 497.976 75.6094 495.925 73.3633C493.898 71.0928 492.885 67.6992 492.885 63.1826V43.4438H487.539V38.7197L493.691 34.9844L496.914 26.3418H504.055V35.0576H515.517V43.4438H504.055V63.1826C504.055 64.7695 504.494 65.9414 505.373 66.6982C506.276 67.4551 507.46 67.8335 508.925 67.8335ZM541.225 42.2354C538.857 42.2354 537.001 42.9922 535.659 44.5059C534.316 45.9951 533.547 48.1191 533.352 50.8779H549.025C548.977 48.1191 548.256 45.9951 546.865 44.5059C545.473 42.9922 543.593 42.2354 541.225 42.2354ZM542.8 76.7324C536.208 76.7324 531.057 74.9136 527.346 71.2759C523.635 67.6382 521.779 62.4868 521.779 55.8218C521.779 48.9614 523.488 43.6636 526.906 39.9282C530.349 36.1685 535.097 34.2886 541.152 34.2886C546.938 34.2886 551.442 35.9365 554.665 39.2324C557.888 42.5283 559.499 47.0815 559.499 52.8921V58.312H533.095C533.217 61.4858 534.157 63.9639 535.915 65.7461C537.673 67.5283 540.139 68.4194 543.312 68.4194C545.778 68.4194 548.11 68.1631 550.307 67.6504C552.504 67.1377 554.799 66.3198 557.192 65.1968V73.8394C555.239 74.8159 553.151 75.5361 550.93 76C548.708 76.4883 545.998 76.7324 542.8 76.7324ZM591.433 34.2886C592.946 34.2886 594.204 34.3984 595.205 34.6182L594.362 45.0918C593.459 44.8477 592.36 44.7256 591.066 44.7256C587.502 44.7256 584.719 45.6411 582.717 47.4722C580.739 49.3032 579.75 51.8667 579.75 55.1626V76H568.581V35.0576H577.041L578.688 41.9424H579.238C580.507 39.6475 582.216 37.8042 584.365 36.4126C586.538 34.9966 588.894 34.2886 591.433 34.2886ZM655.776 76L652.626 61.6812L648.378 43.5903H648.122L640.651 76H628.64L616.994 35.0576H628.127L632.851 53.1851C633.608 56.4321 634.377 60.9121 635.158 66.625H635.378C635.476 64.7695 635.903 61.8276 636.66 57.7993L637.246 54.6865L642.299 35.0576H654.604L659.401 54.6865C659.499 55.2236 659.646 56.0171 659.841 57.0669C660.061 58.1167 660.268 59.2397 660.463 60.436C660.659 61.6079 660.83 62.7676 660.976 63.915C661.147 65.0381 661.245 65.9414 661.269 66.625H661.489C661.708 64.8672 662.099 62.4624 662.661 59.4106C663.222 56.3345 663.625 54.2593 663.869 53.1851L668.776 35.0576H679.726L667.934 76H655.776ZM712.355 76L710.195 70.4336H709.902C708.022 72.8018 706.081 74.4497 704.079 75.3774C702.102 76.2808 699.514 76.7324 696.315 76.7324C692.385 76.7324 689.284 75.6094 687.014 73.3633C684.768 71.1172 683.645 67.9189 683.645 63.7686C683.645 59.4229 685.158 56.2246 688.186 54.1738C691.237 52.0986 695.827 50.9512 701.955 50.7314L709.06 50.5117V48.7173C709.06 44.5669 706.936 42.4917 702.688 42.4917C699.416 42.4917 695.571 43.4805 691.152 45.458L687.453 37.9141C692.165 35.4482 697.39 34.2153 703.127 34.2153C708.62 34.2153 712.832 35.4116 715.761 37.8042C718.691 40.1968 720.156 43.8345 720.156 48.7173V76H712.355ZM709.06 57.0303L704.738 57.1768C701.491 57.2744 699.074 57.8604 697.487 58.9346C695.9 60.0088 695.107 61.6445 695.107 63.8418C695.107 66.9912 696.914 68.5659 700.527 68.5659C703.115 68.5659 705.178 67.8213 706.716 66.332C708.278 64.8428 709.06 62.8652 709.06 60.3994V57.0303ZM725.832 35.0576H738.063L745.791 58.0923C746.45 60.0942 746.901 62.4624 747.146 65.1968H747.365C747.634 62.6821 748.159 60.314 748.94 58.0923L756.521 35.0576H768.496L751.174 81.2368C749.587 85.5093 747.316 88.7075 744.362 90.8315C741.433 92.9556 738.002 94.0176 734.072 94.0176C732.143 94.0176 730.251 93.8101 728.396 93.395V84.5327C729.738 84.8501 731.203 85.0088 732.79 85.0088C734.768 85.0088 736.489 84.3984 737.954 83.1777C739.443 81.9814 740.603 80.1626 741.433 77.7212L742.092 75.707L725.832 35.0576ZM802.773 55.4556C802.773 59.5083 803.432 62.5723 804.75 64.6475C806.093 66.7227 808.266 67.7603 811.269 67.7603C814.248 67.7603 816.384 66.7349 817.678 64.6841C818.996 62.6089 819.655 59.5327 819.655 55.4556C819.655 51.4028 818.996 48.3633 817.678 46.3369C816.359 44.3105 814.199 43.2974 811.196 43.2974C808.217 43.2974 806.069 44.3105 804.75 46.3369C803.432 48.3389 802.773 51.3784 802.773 55.4556ZM831.081 55.4556C831.081 62.1206 829.323 67.333 825.808 71.0928C822.292 74.8525 817.397 76.7324 811.123 76.7324C807.192 76.7324 803.725 75.8779 800.722 74.1689C797.719 72.4355 795.412 69.9575 793.801 66.7349C792.189 63.5122 791.384 59.7524 791.384 55.4556C791.384 48.7661 793.129 43.5659 796.621 39.855C800.112 36.144 805.019 34.2886 811.342 34.2886C815.273 34.2886 818.74 35.1431 821.743 36.8521C824.746 38.561 827.053 41.0146 828.664 44.2129C830.275 47.4111 831.081 51.1587 831.081 55.4556ZM862.941 43.4438H853.273V76H842.104V43.4438H835.952V38.0605L842.104 35.0576V32.0547C842.104 27.3916 843.251 23.9858 845.546 21.8374C847.841 19.689 851.516 18.6147 856.569 18.6147C860.427 18.6147 863.857 19.1885 866.86 20.3359L864.003 28.5391C861.757 27.8311 859.682 27.4771 857.778 27.4771C856.191 27.4771 855.043 27.9531 854.335 28.9053C853.627 29.833 853.273 31.0293 853.273 32.4941V35.0576H862.941V43.4438ZM901.833 76.7324C897.023 76.7324 893.239 74.8647 890.48 71.1294C887.746 67.394 886.379 62.2183 886.379 55.6021C886.379 48.8882 887.771 43.6636 890.554 39.9282C893.361 36.1685 897.219 34.2886 902.126 34.2886C907.277 34.2886 911.208 36.2905 913.918 40.2944H914.284C913.723 37.2427 913.442 34.5205 913.442 32.1279V19.0176H924.648V76H916.079L913.918 70.6899H913.442C910.903 74.7183 907.033 76.7324 901.833 76.7324ZM905.751 67.8335C908.608 67.8335 910.695 67.0034 912.014 65.3433C913.356 63.6831 914.089 60.8633 914.211 56.8838V55.6753C914.211 51.2808 913.527 48.1313 912.16 46.2271C910.817 44.3228 908.62 43.3706 905.568 43.3706C903.078 43.3706 901.137 44.4326 899.746 46.5566C898.378 48.6562 897.695 51.7202 897.695 55.7485C897.695 59.7769 898.391 62.8042 899.782 64.8306C901.174 66.8325 903.164 67.8335 905.751 67.8335ZM945.229 55.4556C945.229 59.5083 945.888 62.5723 947.207 64.6475C948.549 66.7227 950.722 67.7603 953.725 67.7603C956.704 67.7603 958.84 66.7349 960.134 64.6841C961.452 62.6089 962.111 59.5327 962.111 55.4556C962.111 51.4028 961.452 48.3633 960.134 46.3369C958.815 44.3105 956.655 43.2974 953.652 43.2974C950.673 43.2974 948.525 44.3105 947.207 46.3369C945.888 48.3389 945.229 51.3784 945.229 55.4556ZM973.537 55.4556C973.537 62.1206 971.779 67.333 968.264 71.0928C964.748 74.8525 959.853 76.7324 953.579 76.7324C949.648 76.7324 946.181 75.8779 943.178 74.1689C940.175 72.4355 937.868 69.9575 936.257 66.7349C934.646 63.5122 933.84 59.7524 933.84 55.4556C933.84 48.7661 935.585 43.5659 939.077 39.855C942.568 36.144 947.475 34.2886 953.798 34.2886C957.729 34.2886 961.196 35.1431 964.199 36.8521C967.202 38.561 969.509 41.0146 971.12 44.2129C972.731 47.4111 973.537 51.1587 973.537 55.4556ZM982.29 24.4741C982.29 20.8364 984.316 19.0176 988.369 19.0176C992.421 19.0176 994.448 20.8364 994.448 24.4741C994.448 26.2075 993.935 27.5625 992.91 28.5391C991.909 29.4912 990.395 29.9673 988.369 29.9673C984.316 29.9673 982.29 28.1362 982.29 24.4741ZM993.935 76H982.766V35.0576H993.935V76ZM1043.48 76H1032.31V52.0864C1032.31 49.1323 1031.79 46.9229 1030.74 45.458C1029.69 43.9688 1028.02 43.2241 1025.72 43.2241C1022.6 43.2241 1020.34 44.2739 1018.95 46.3735C1017.56 48.4487 1016.86 51.9033 1016.86 56.7373V76H1005.69V35.0576H1014.22L1015.72 40.2944H1016.35C1017.59 38.3169 1019.3 36.8276 1021.47 35.8267C1023.67 34.8013 1026.16 34.2886 1028.94 34.2886C1033.71 34.2886 1037.32 35.5825 1039.78 38.1704C1042.25 40.7339 1043.48 44.4448 1043.48 49.3032V76ZM1090.61 35.0576V40.7339L1084.21 42.3818C1085.38 44.2129 1085.96 46.2637 1085.96 48.5342C1085.96 52.9287 1084.43 56.3589 1081.35 58.8247C1078.3 61.2661 1074.05 62.4868 1068.61 62.4868L1066.59 62.377L1064.94 62.1938C1063.8 63.0728 1063.22 64.0493 1063.22 65.1235C1063.22 66.7349 1065.27 67.5405 1069.37 67.5405H1076.33C1080.82 67.5405 1084.24 68.5049 1086.59 70.4336C1088.95 72.3623 1090.14 75.1943 1090.14 78.9297C1090.14 83.7148 1088.14 87.4258 1084.13 90.0625C1080.15 92.6992 1074.43 94.0176 1066.96 94.0176C1061.24 94.0176 1056.87 93.0166 1053.85 91.0146C1050.84 89.0371 1049.34 86.2539 1049.34 82.665C1049.34 80.1992 1050.11 78.1362 1051.65 76.4761C1053.19 74.8159 1055.45 73.6318 1058.42 72.9238C1057.28 72.4355 1056.28 71.6421 1055.42 70.5435C1054.57 69.4204 1054.14 68.2363 1054.14 66.9912C1054.14 65.4287 1054.59 64.1348 1055.5 63.1094C1056.4 62.0596 1057.7 61.0342 1059.41 60.0332C1057.27 59.1055 1055.56 57.6162 1054.29 55.5654C1053.04 53.5146 1052.42 51.0977 1052.42 48.3145C1052.42 43.8467 1053.87 40.3921 1056.78 37.9507C1059.68 35.5093 1063.83 34.2886 1069.23 34.2886C1070.38 34.2886 1071.73 34.3984 1073.29 34.6182C1074.88 34.8135 1075.89 34.96 1076.33 35.0576H1090.61ZM1059.01 81.7861C1059.01 83.3242 1059.74 84.5327 1061.21 85.4116C1062.7 86.2905 1064.77 86.73 1067.43 86.73C1071.44 86.73 1074.57 86.1807 1076.85 85.082C1079.12 83.9834 1080.25 82.4819 1080.25 80.5776C1080.25 79.0396 1079.58 77.9775 1078.24 77.3916C1076.89 76.8057 1074.82 76.5127 1072.01 76.5127H1066.23C1064.17 76.5127 1062.45 76.9888 1061.06 77.9409C1059.69 78.9175 1059.01 80.1992 1059.01 81.7861ZM1063.08 48.4609C1063.08 50.6826 1063.58 52.4404 1064.58 53.7344C1065.6 55.0283 1067.15 55.6753 1069.23 55.6753C1071.33 55.6753 1072.87 55.0283 1073.84 53.7344C1074.82 52.4404 1075.31 50.6826 1075.31 48.4609C1075.31 43.5293 1073.28 41.0635 1069.23 41.0635C1065.13 41.0635 1063.08 43.5293 1063.08 48.4609ZM172.524 118.474C172.524 114.836 174.55 113.018 178.603 113.018C182.656 113.018 184.682 114.836 184.682 118.474C184.682 120.208 184.169 121.562 183.144 122.539C182.143 123.491 180.629 123.967 178.603 123.967C174.55 123.967 172.524 122.136 172.524 118.474ZM184.169 170H173V129.058H184.169V170ZM233.718 170H222.548V146.086C222.548 143.132 222.023 140.923 220.974 139.458C219.924 137.969 218.251 137.224 215.957 137.224C212.832 137.224 210.573 138.274 209.182 140.374C207.79 142.449 207.094 145.903 207.094 150.737V170H195.925V129.058H204.458L205.959 134.294H206.582C207.827 132.317 209.536 130.828 211.708 129.827C213.906 128.801 216.396 128.289 219.179 128.289C223.94 128.289 227.553 129.583 230.019 132.17C232.485 134.734 233.718 138.445 233.718 143.303V170ZM267.995 128.289C272.829 128.289 276.613 130.181 279.348 133.965C282.082 137.725 283.449 142.888 283.449 149.456C283.449 156.218 282.033 161.455 279.201 165.166C276.394 168.877 272.561 170.732 267.702 170.732C262.893 170.732 259.121 168.987 256.386 165.496H255.617L253.75 170H245.217V113.018H256.386V126.274C256.386 127.959 256.24 130.657 255.947 134.368H256.386C258.999 130.315 262.868 128.289 267.995 128.289ZM264.406 137.224C261.647 137.224 259.633 138.079 258.364 139.788C257.094 141.472 256.435 144.268 256.386 148.174V149.382C256.386 153.777 257.033 156.926 258.327 158.831C259.646 160.735 261.721 161.687 264.553 161.687C266.848 161.687 268.667 160.637 270.009 158.538C271.376 156.414 272.06 153.337 272.06 149.309C272.06 145.281 271.376 142.266 270.009 140.264C268.642 138.237 266.774 137.224 264.406 137.224ZM301.577 149.456C301.577 153.508 302.236 156.572 303.554 158.647C304.897 160.723 307.07 161.76 310.073 161.76C313.051 161.76 315.188 160.735 316.481 158.684C317.8 156.609 318.459 153.533 318.459 149.456C318.459 145.403 317.8 142.363 316.481 140.337C315.163 138.311 313.002 137.297 310 137.297C307.021 137.297 304.873 138.311 303.554 140.337C302.236 142.339 301.577 145.378 301.577 149.456ZM329.885 149.456C329.885 156.121 328.127 161.333 324.611 165.093C321.096 168.853 316.201 170.732 309.926 170.732C305.996 170.732 302.529 169.878 299.526 168.169C296.523 166.436 294.216 163.958 292.604 160.735C290.993 157.512 290.188 153.752 290.188 149.456C290.188 142.766 291.933 137.566 295.424 133.855C298.916 130.144 303.823 128.289 310.146 128.289C314.077 128.289 317.543 129.143 320.546 130.852C323.549 132.561 325.856 135.015 327.468 138.213C329.079 141.411 329.885 145.159 329.885 149.456ZM368.117 170L366.616 164.763H366.03C364.833 166.667 363.137 168.145 360.939 169.194C358.742 170.22 356.24 170.732 353.432 170.732C348.623 170.732 344.997 169.451 342.556 166.887C340.114 164.299 338.894 160.588 338.894 155.754V129.058H350.063V152.971C350.063 155.925 350.588 158.147 351.638 159.636C352.688 161.101 354.36 161.833 356.655 161.833C359.78 161.833 362.038 160.796 363.43 158.721C364.821 156.621 365.517 153.154 365.517 148.32V129.058H376.687V170H368.117ZM426.198 170H415.029V146.086C415.029 143.132 414.504 140.923 413.454 139.458C412.404 137.969 410.732 137.224 408.437 137.224C405.312 137.224 403.054 138.274 401.662 140.374C400.271 142.449 399.575 145.903 399.575 150.737V170H388.405V129.058H396.938L398.439 134.294H399.062C400.307 132.317 402.016 130.828 404.189 129.827C406.386 128.801 408.876 128.289 411.66 128.289C416.42 128.289 420.034 129.583 422.5 132.17C424.965 134.734 426.198 138.445 426.198 143.303V170ZM450.661 170.732C445.852 170.732 442.067 168.865 439.309 165.129C436.574 161.394 435.207 156.218 435.207 149.602C435.207 142.888 436.599 137.664 439.382 133.928C442.189 130.168 446.047 128.289 450.954 128.289C456.105 128.289 460.036 130.291 462.746 134.294H463.112C462.551 131.243 462.27 128.521 462.27 126.128V113.018H473.476V170H464.907L462.746 164.69H462.27C459.731 168.718 455.861 170.732 450.661 170.732ZM454.58 161.833C457.436 161.833 459.523 161.003 460.842 159.343C462.185 157.683 462.917 154.863 463.039 150.884V149.675C463.039 145.281 462.355 142.131 460.988 140.227C459.646 138.323 457.448 137.371 454.396 137.371C451.906 137.371 449.965 138.433 448.574 140.557C447.207 142.656 446.523 145.72 446.523 149.749C446.523 153.777 447.219 156.804 448.61 158.831C450.002 160.833 451.992 161.833 454.58 161.833ZM541.298 170H530.129V146.086C530.129 143.132 529.628 140.923 528.627 139.458C527.651 137.969 526.101 137.224 523.977 137.224C521.12 137.224 519.045 138.274 517.751 140.374C516.457 142.473 515.81 145.928 515.81 150.737V170H504.641V129.058H513.173L514.675 134.294H515.297C516.396 132.415 517.983 130.95 520.058 129.9C522.133 128.826 524.514 128.289 527.199 128.289C533.327 128.289 537.478 130.291 539.65 134.294H540.639C541.738 132.39 543.349 130.913 545.473 129.863C547.622 128.813 550.039 128.289 552.724 128.289C557.363 128.289 560.866 129.485 563.234 131.877C565.627 134.246 566.823 138.054 566.823 143.303V170H555.617V146.086C555.617 143.132 555.117 140.923 554.116 139.458C553.139 137.969 551.589 137.224 549.465 137.224C546.73 137.224 544.68 138.201 543.312 140.154C541.97 142.107 541.298 145.208 541.298 149.456V170ZM604.323 170L602.163 164.434H601.87C599.99 166.802 598.049 168.45 596.047 169.377C594.069 170.281 591.481 170.732 588.283 170.732C584.353 170.732 581.252 169.609 578.981 167.363C576.735 165.117 575.612 161.919 575.612 157.769C575.612 153.423 577.126 150.225 580.153 148.174C583.205 146.099 587.795 144.951 593.923 144.731L601.027 144.512V142.717C601.027 138.567 598.903 136.492 594.655 136.492C591.384 136.492 587.539 137.48 583.12 139.458L579.421 131.914C584.133 129.448 589.357 128.215 595.095 128.215C600.588 128.215 604.799 129.412 607.729 131.804C610.659 134.197 612.124 137.834 612.124 142.717V170H604.323ZM601.027 151.03L596.706 151.177C593.459 151.274 591.042 151.86 589.455 152.935C587.868 154.009 587.075 155.645 587.075 157.842C587.075 160.991 588.881 162.566 592.495 162.566C595.083 162.566 597.146 161.821 598.684 160.332C600.246 158.843 601.027 156.865 601.027 154.399V151.03ZM646.511 128.289C648.024 128.289 649.282 128.398 650.283 128.618L649.44 139.092C648.537 138.848 647.438 138.726 646.145 138.726C642.58 138.726 639.797 139.641 637.795 141.472C635.817 143.303 634.829 145.867 634.829 149.163V170H623.659V129.058H632.119L633.767 135.942H634.316C635.585 133.647 637.294 131.804 639.443 130.413C641.616 128.997 643.972 128.289 646.511 128.289ZM668.447 147.734L673.317 141.509L684.78 129.058H697.377L681.118 146.819L698.366 170H685.476L673.684 153.411L668.886 157.256V170H657.717V113.018H668.886V138.433L668.3 147.734H668.447ZM721.181 136.235C718.813 136.235 716.958 136.992 715.615 138.506C714.272 139.995 713.503 142.119 713.308 144.878H728.981C728.933 142.119 728.212 139.995 726.821 138.506C725.429 136.992 723.549 136.235 721.181 136.235ZM722.756 170.732C716.164 170.732 711.013 168.914 707.302 165.276C703.591 161.638 701.735 156.487 701.735 149.822C701.735 142.961 703.444 137.664 706.862 133.928C710.305 130.168 715.053 128.289 721.108 128.289C726.894 128.289 731.398 129.937 734.621 133.232C737.844 136.528 739.455 141.082 739.455 146.892V152.312H713.051C713.173 155.486 714.113 157.964 715.871 159.746C717.629 161.528 720.095 162.419 723.269 162.419C725.734 162.419 728.066 162.163 730.263 161.65C732.46 161.138 734.755 160.32 737.148 159.197V167.839C735.195 168.816 733.107 169.536 730.886 170C728.664 170.488 725.954 170.732 722.756 170.732ZM765.786 161.833C767.739 161.833 770.083 161.406 772.817 160.552V168.865C770.034 170.11 766.616 170.732 762.563 170.732C758.095 170.732 754.836 169.609 752.785 167.363C750.759 165.093 749.746 161.699 749.746 157.183V137.444H744.399V132.72L750.551 128.984L753.774 120.342H760.915V129.058H772.377V137.444H760.915V157.183C760.915 158.77 761.354 159.941 762.233 160.698C763.137 161.455 764.321 161.833 765.786 161.833ZM780.654 118.474C780.654 114.836 782.68 113.018 786.733 113.018C790.786 113.018 792.812 114.836 792.812 118.474C792.812 120.208 792.299 121.562 791.274 122.539C790.273 123.491 788.759 123.967 786.733 123.967C782.68 123.967 780.654 122.136 780.654 118.474ZM792.299 170H781.13V129.058H792.299V170ZM841.848 170H830.678V146.086C830.678 143.132 830.153 140.923 829.104 139.458C828.054 137.969 826.381 137.224 824.086 137.224C820.961 137.224 818.703 138.274 817.312 140.374C815.92 142.449 815.224 145.903 815.224 150.737V170H804.055V129.058H812.587L814.089 134.294H814.711C815.957 132.317 817.666 130.828 819.838 129.827C822.036 128.801 824.526 128.289 827.309 128.289C832.07 128.289 835.683 129.583 838.149 132.17C840.615 134.734 841.848 138.445 841.848 143.303V170ZM888.979 129.058V134.734L882.57 136.382C883.742 138.213 884.328 140.264 884.328 142.534C884.328 146.929 882.79 150.359 879.714 152.825C876.662 155.266 872.414 156.487 866.97 156.487L864.956 156.377L863.308 156.194C862.16 157.073 861.586 158.049 861.586 159.124C861.586 160.735 863.637 161.541 867.739 161.541H874.697C879.189 161.541 882.607 162.505 884.951 164.434C887.319 166.362 888.503 169.194 888.503 172.93C888.503 177.715 886.501 181.426 882.497 184.062C878.518 186.699 872.792 188.018 865.322 188.018C859.609 188.018 855.239 187.017 852.211 185.015C849.208 183.037 847.707 180.254 847.707 176.665C847.707 174.199 848.476 172.136 850.014 170.476C851.552 168.816 853.811 167.632 856.789 166.924C855.642 166.436 854.641 165.642 853.786 164.543C852.932 163.42 852.504 162.236 852.504 160.991C852.504 159.429 852.956 158.135 853.859 157.109C854.763 156.06 856.069 155.034 857.778 154.033C855.629 153.105 853.92 151.616 852.651 149.565C851.406 147.515 850.783 145.098 850.783 142.314C850.783 137.847 852.236 134.392 855.141 131.951C858.046 129.509 862.197 128.289 867.592 128.289C868.74 128.289 870.095 128.398 871.657 128.618C873.244 128.813 874.257 128.96 874.697 129.058H888.979ZM857.375 175.786C857.375 177.324 858.107 178.533 859.572 179.412C861.062 180.291 863.137 180.73 865.798 180.73C869.802 180.73 872.939 180.181 875.209 179.082C877.48 177.983 878.615 176.482 878.615 174.578C878.615 173.04 877.944 171.978 876.601 171.392C875.258 170.806 873.183 170.513 870.375 170.513H864.589C862.539 170.513 860.817 170.989 859.426 171.941C858.059 172.917 857.375 174.199 857.375 175.786ZM861.44 142.461C861.44 144.683 861.94 146.44 862.941 147.734C863.967 149.028 865.517 149.675 867.592 149.675C869.692 149.675 871.23 149.028 872.207 147.734C873.183 146.44 873.671 144.683 873.671 142.461C873.671 137.529 871.645 135.063 867.592 135.063C863.491 135.063 861.44 137.529 861.44 142.461Z" fill="#55ACEE"/>
</svg>
