<svg width="40" height="40" viewBox="0 0 40 40" fill="none" xmlns="http://www.w3.org/2000/svg">
<g clip-path="url(#clip0)">
<path d="M0.701282 11.809C0.428875 10.8004 1.02828 9.76494 2.05048 9.49281L31.5315 1.65235C32.549 1.38189 33.5946 1.98093 33.8666 2.98853L39.2989 23.1108C39.5713 24.1194 38.9719 25.1549 37.9497 25.427L8.46864 33.2674C7.45119 33.5379 6.40555 32.9389 6.13351 31.9313L0.701282 11.809Z" fill="#EA3457"/>
<path d="M7.97541 33.9675C6.85388 33.9675 5.8247 33.2231 5.52058 32.0971L0.0883487 11.9747C-0.0875206 11.3242 0.00101859 10.6452 0.337505 10.0626C0.676223 9.47533 1.22671 9.05505 1.88731 8.87955L31.3684 1.03909C32.7223 0.679077 34.1165 1.47974 34.4797 2.82318L39.9116 22.9455C40.0875 23.5959 39.999 24.275 39.6624 24.8575C39.3237 25.4448 38.7732 25.8651 38.1126 26.0406L8.63154 33.8811C8.41252 33.9395 8.1922 33.9675 7.97541 33.9675ZM32.0262 2.22265C31.9166 2.22265 31.8056 2.2366 31.6947 2.26618L2.21366 10.1065C1.88192 10.1948 1.60635 10.4043 1.43746 10.697C1.27107 10.9852 1.22727 11.3215 1.31432 11.6433L6.74627 31.7656C6.92726 32.4361 7.6272 32.8342 8.30557 32.6539L37.7866 24.8134C38.1184 24.7252 38.3939 24.5157 38.5628 24.223C38.7292 23.9348 38.773 23.5985 38.686 23.2767L33.2541 3.15436C33.1023 2.59309 32.5877 2.22265 32.0262 2.22265Z" fill="#EA3457"/>
<path d="M27.6583 38.4124H6.98426C5.93258 38.4124 5.07983 37.5654 5.07983 36.5036V13.0204C5.07983 11.9661 5.92747 11.1116 6.98426 11.1116H37.4603C38.5119 11.1116 39.3647 11.9586 39.3647 13.0204V36.5035C39.3647 37.5578 38.517 38.4123 37.4603 38.4123H33.3264" fill="white"/>
<path d="M12.4782 18.6997V19H7V18.6997H7.75267V14.1187H9.86325C10.2305 14.1187 10.5461 14.1583 10.8099 14.2374C11.0789 14.3166 11.2781 14.4236 11.4074 14.5587C11.6557 14.8101 11.7798 15.094 11.7798 15.4106C11.7798 15.7924 11.6453 16.0763 11.3764 16.2626C11.2781 16.3277 11.2108 16.3696 11.1746 16.3883C11.1384 16.4022 11.0737 16.4278 10.9806 16.4651C11.3169 16.5303 11.5833 16.6676 11.7798 16.8771C11.9816 17.0819 12.0825 17.338 12.0825 17.6453C12.0825 18.1061 11.8807 18.4576 11.4772 18.6997H12.4782ZM8.66829 18.2388H10.1038C10.44 18.2388 10.6961 18.1923 10.872 18.0992C11.053 18.0014 11.1436 17.8198 11.1436 17.5545C11.1436 17.1215 10.7582 16.905 9.9874 16.905H8.66829V18.2388ZM8.66829 16.1439H9.83221C10.4944 16.1439 10.8254 15.9413 10.8254 15.5363C10.8254 15.3035 10.7452 15.1359 10.5849 15.0335C10.4245 14.9311 10.1762 14.8799 9.83997 14.8799H8.66829V16.1439Z" fill="#602F75"/>
<path d="M17.3749 18.6997V19H12.4786V18.6997H13.2313V14.1187H14.1469V18.2179H16.6222V18.6997H17.3749Z" fill="#602F75"/>
<path d="M23.2401 18.6997V19H16.7221V18.6997H18.499C18.0748 18.4809 17.7386 18.1806 17.4903 17.7989C17.2472 17.4171 17.1256 16.9912 17.1256 16.5209C17.1256 15.804 17.3998 15.2058 17.9481 14.7263C18.4964 14.2421 19.1741 14 19.9811 14C20.7881 14 21.4657 14.2421 22.0141 14.7263C22.5624 15.2058 22.8366 15.804 22.8366 16.5209C22.8366 16.9865 22.7124 17.4125 22.4641 17.7989C22.221 18.1853 21.8873 18.4856 21.4631 18.6997H23.2401ZM21.339 15.2709C20.9717 14.9264 20.5191 14.7542 19.9811 14.7542C19.4431 14.7542 18.9879 14.9264 18.6154 15.2709C18.2481 15.6155 18.0645 16.0345 18.0645 16.5279C18.0645 17.0168 18.2481 17.4334 18.6154 17.7779C18.9879 18.1224 19.4431 18.2947 19.9811 18.2947C20.5191 18.2947 20.9717 18.1224 21.339 17.7779C21.7115 17.4334 21.8977 17.0168 21.8977 16.5279C21.8977 16.0345 21.7115 15.6155 21.339 15.2709Z" fill="#602F75"/>
<path d="M29.1128 18.6997V19H23.2389V18.6997H25.1167C24.6666 18.4949 24.3071 18.1946 24.0381 17.7989C23.7743 17.4032 23.6424 16.9562 23.6424 16.4581C23.6424 15.7458 23.9165 15.1592 24.4649 14.6983C25.0132 14.2328 25.6779 14 26.459 14C27.2453 14 27.8971 14.2048 28.4144 14.6145L27.9256 15.243C27.7135 15.0801 27.4988 14.9683 27.2816 14.9078C27.0695 14.8426 26.8212 14.8101 26.5366 14.8101C25.9831 14.8101 25.5201 14.959 25.1477 15.257C24.7804 15.5549 24.5968 15.9623 24.5968 16.4791C24.5968 16.9958 24.7778 17.4125 25.1399 17.7291C25.502 18.041 25.9392 18.1969 26.4513 18.1969C26.9686 18.1969 27.4005 18.0968 27.7471 17.8966V16.5559H28.6627V18.2249C28.4713 18.4157 28.2386 18.574 27.9644 18.6997H29.1128Z" fill="#602F75"/>
<path d="M34 18.6997V19H29.1115V18.6997H30.1047C29.8564 18.5833 29.6288 18.439 29.4219 18.2668L29.9961 17.6453C30.5444 18.0736 31.1135 18.2877 31.7032 18.2877C31.9981 18.2877 32.2308 18.2318 32.4015 18.1201C32.5774 18.0037 32.6654 17.8524 32.6654 17.6662C32.6654 17.4753 32.5826 17.3287 32.4171 17.2263C32.2567 17.1192 31.9774 17.0237 31.579 16.9399C31.1807 16.8515 30.8781 16.7723 30.6712 16.7025C30.4643 16.628 30.2806 16.5326 30.1203 16.4162C29.7995 16.1974 29.6392 15.8622 29.6392 15.4106C29.6392 14.959 29.8202 14.6122 30.1823 14.3701C30.5496 14.1234 31.0023 14 31.5402 14C31.8868 14 32.2308 14.0512 32.5723 14.1536C32.9137 14.2561 33.2085 14.4004 33.4568 14.5866L32.968 15.2081C32.8076 15.0777 32.5904 14.9707 32.3162 14.8869C32.042 14.8031 31.7704 14.7612 31.5014 14.7612C31.2376 14.7612 31.0204 14.8101 30.8496 14.9078C30.6789 15.0056 30.5936 15.1546 30.5936 15.3547C30.5936 15.5503 30.6789 15.7016 30.8496 15.8087C31.0204 15.9111 31.3825 16.0228 31.936 16.1439C32.4947 16.2649 32.9137 16.4348 33.193 16.6536C33.4775 16.8724 33.6198 17.1797 33.6198 17.5754C33.6198 18.0549 33.4232 18.4297 33.0301 18.6997H34Z" fill="#602F75"/>
<path d="M37.4604 39.0474H33.3266C32.9762 39.0474 32.6917 38.763 32.6917 38.4125C32.6917 38.0621 32.9761 37.7776 33.3266 37.7776H37.4604C38.1604 37.7776 38.7299 37.2059 38.7299 36.5033V13.0203C38.7299 12.3177 38.1604 11.7463 37.4604 11.7463H6.98446C6.28452 11.7466 5.71497 12.3177 5.71497 13.0203V36.5034C5.71497 37.206 6.28452 37.7777 6.98446 37.7777H27.6585C28.0089 37.7777 28.2934 38.0621 28.2934 38.4126C28.2934 38.763 28.009 39.0475 27.6585 39.0475H6.98446C5.5842 39.0475 4.44519 37.9063 4.44519 36.5035V13.0203C4.44519 11.6178 5.5842 10.4768 6.98446 10.4768H37.4604C38.8607 10.4768 39.9997 11.6181 39.9997 13.0205V36.5037C39.9997 37.9062 38.8607 39.0474 37.4604 39.0474Z" fill="#602F75"/>
<path d="M19.0478 23.8094H8.25452V30.1585H19.0478V23.8094Z" fill="#FFE600"/>
<path d="M19.0481 30.7936H8.25468C7.90425 30.7936 7.61975 30.5092 7.61975 30.1587V23.8096C7.61975 23.4592 7.90415 23.1747 8.25468 23.1747H19.048C19.3984 23.1747 19.6829 23.4591 19.6829 23.8096V30.1587C19.6829 30.5091 19.3985 30.7936 19.0481 30.7936ZM8.88962 29.5237H18.4132V24.4446H8.88962V29.5237Z" fill="#602F75"/>
<path d="M36.825 23.8094H20.9524V25.0792H36.825V23.8094Z" fill="#00E7FF"/>
<path d="M36.825 28.8884H20.9524V30.1582H36.825V28.8884Z" fill="#EA3457"/>
<path d="M36.8251 26.3485H20.9525V27.6183H36.8251V26.3485Z" fill="#00E7FF"/>
<path d="M36.8251 31.4274H8.25452V32.6971H36.8251V31.4274Z" fill="#00E7FF"/>
<path d="M36.8251 33.9674H8.25452V35.2372H36.8251V33.9674Z" fill="#EA3457"/>
</g>
<defs>
<clipPath id="clip0">
<rect width="40" height="40" fill="white"/>
</clipPath>
</defs>
</svg>
