<svg width="1034" height="286" viewBox="0 0 1034 286" fill="none" xmlns="http://www.w3.org/2000/svg">
<path d="M251.036 89L246.74 74.8965H225.139L220.843 89H207.307L228.219 29.5059H243.579L264.572 89H251.036ZM243.741 64.3594C239.769 51.5798 237.527 44.3524 237.013 42.6772C236.527 41.0021 236.176 39.6782 235.959 38.7056C235.068 42.1639 232.515 50.7152 228.3 64.3594H243.741ZM317.865 42.8394C323.215 42.8394 327.403 44.9333 330.429 49.1211C333.455 53.2819 334.968 58.9963 334.968 66.2642C334.968 73.7482 333.401 79.5436 330.267 83.6504C327.16 87.7572 322.918 89.8105 317.541 89.8105C312.218 89.8105 308.044 87.8787 305.018 84.0151H304.167L302.1 89H292.657V25.9395H305.018V40.6104C305.018 42.4746 304.856 45.4601 304.532 49.5669H305.018C307.909 45.0819 312.191 42.8394 317.865 42.8394ZM313.894 52.728C310.84 52.728 308.611 53.6737 307.207 55.5649C305.802 57.4292 305.072 60.5228 305.018 64.8457V66.1831C305.018 71.0464 305.734 74.5317 307.166 76.6392C308.625 78.7466 310.922 79.8003 314.056 79.8003C316.595 79.8003 318.608 78.6385 320.094 76.3149C321.607 73.9644 322.364 70.5601 322.364 66.1021C322.364 61.644 321.607 58.3073 320.094 56.0918C318.581 53.8493 316.514 52.728 313.894 52.728ZM363.945 51.6338C361.324 51.6338 359.271 52.4714 357.785 54.1465C356.299 55.7946 355.448 58.1452 355.231 61.1982H372.577C372.523 58.1452 371.726 55.7946 370.186 54.1465C368.646 52.4714 366.566 51.6338 363.945 51.6338ZM365.688 89.8105C358.393 89.8105 352.692 87.7977 348.585 83.772C344.478 79.7463 342.425 74.0454 342.425 66.6694C342.425 59.0773 344.316 53.2144 348.099 49.0806C351.908 44.9198 357.163 42.8394 363.864 42.8394C370.267 42.8394 375.252 44.6631 378.818 48.3105C382.385 51.958 384.168 56.9969 384.168 63.4272V69.4253H354.948C355.083 72.9377 356.123 75.68 358.068 77.6523C360.014 79.6247 362.743 80.6108 366.255 80.6108C368.984 80.6108 371.564 80.3271 373.996 79.7598C376.427 79.1924 378.967 78.2873 381.615 77.0444V86.6089C379.453 87.6896 377.143 88.4867 374.685 89C372.226 89.5404 369.227 89.8105 365.688 89.8105ZM413.307 79.9624C415.469 79.9624 418.062 79.4896 421.088 78.5439V87.7437C418.008 89.1216 414.226 89.8105 409.741 89.8105C404.796 89.8105 401.189 88.5677 398.92 86.082C396.677 83.5693 395.556 79.8138 395.556 74.8154V52.9712H389.639V47.7432L396.448 43.6094L400.014 34.0449H407.917V43.6904H420.602V52.9712H407.917V74.8154C407.917 76.5716 408.403 77.8685 409.376 78.7061C410.376 79.5436 411.686 79.9624 413.307 79.9624ZM449.376 79.9624C451.538 79.9624 454.132 79.4896 457.158 78.5439V87.7437C454.078 89.1216 450.295 89.8105 445.81 89.8105C440.866 89.8105 437.259 88.5677 434.989 86.082C432.747 83.5693 431.625 79.8138 431.625 74.8154V52.9712H425.708V47.7432L432.517 43.6094L436.083 34.0449H443.986V43.6904H456.671V52.9712H443.986V74.8154C443.986 76.5716 444.473 77.8685 445.445 78.7061C446.445 79.5436 447.755 79.9624 449.376 79.9624ZM485.122 51.6338C482.501 51.6338 480.447 52.4714 478.961 54.1465C477.475 55.7946 476.624 58.1452 476.408 61.1982H493.754C493.7 58.1452 492.903 55.7946 491.363 54.1465C489.823 52.4714 487.742 51.6338 485.122 51.6338ZM486.864 89.8105C479.569 89.8105 473.868 87.7977 469.762 83.772C465.655 79.7463 463.602 74.0454 463.602 66.6694C463.602 59.0773 465.493 53.2144 469.275 49.0806C473.085 44.9198 478.34 42.8394 485.041 42.8394C491.444 42.8394 496.429 44.6631 499.995 48.3105C503.562 51.958 505.345 56.9969 505.345 63.4272V69.4253H476.125C476.26 72.9377 477.3 75.68 479.245 77.6523C481.19 79.6247 483.919 80.6108 487.432 80.6108C490.16 80.6108 492.741 80.3271 495.172 79.7598C497.604 79.1924 500.144 78.2873 502.792 77.0444V86.6089C500.63 87.6896 498.32 88.4867 495.861 89C493.403 89.5404 490.404 89.8105 486.864 89.8105ZM540.685 42.8394C542.36 42.8394 543.751 42.9609 544.859 43.2041L543.927 54.7949C542.927 54.5247 541.711 54.3896 540.279 54.3896C536.335 54.3896 533.255 55.4028 531.039 57.4292C528.851 59.4556 527.756 62.2925 527.756 65.9399V89H515.396V43.6904H524.757L526.581 51.3096H527.189C528.594 48.7699 530.485 46.73 532.863 45.1899C535.267 43.6229 537.875 42.8394 540.685 42.8394ZM611.891 89L608.406 73.1538L603.705 53.1333H603.421L595.153 89H581.86L568.973 43.6904H581.293L586.521 63.7515C587.359 67.3449 588.21 72.3027 589.074 78.625H589.317C589.425 76.5716 589.898 73.3159 590.736 68.8579L591.384 65.4131L596.977 43.6904H610.594L615.903 65.4131C616.011 66.0075 616.174 66.8856 616.39 68.0474C616.633 69.2091 616.862 70.452 617.079 71.7759C617.295 73.0728 617.484 74.3561 617.646 75.626C617.835 76.8688 617.943 77.8685 617.97 78.625H618.213C618.457 76.6797 618.889 74.0184 619.51 70.6411C620.132 67.2368 620.577 64.9403 620.848 63.7515L626.278 43.6904H638.396L625.346 89H611.891ZM674.506 89L672.115 82.8398H671.791C669.71 85.4606 667.562 87.2843 665.347 88.311C663.158 89.3107 660.294 89.8105 656.755 89.8105C652.405 89.8105 648.974 88.5677 646.461 86.082C643.975 83.5964 642.732 80.057 642.732 75.4639C642.732 70.6546 644.408 67.1152 647.758 64.8457C651.135 62.5492 656.215 61.2793 662.996 61.0361L670.858 60.793V58.8071C670.858 54.214 668.508 51.9175 663.807 51.9175C660.186 51.9175 655.931 53.0117 651.041 55.2002L646.947 46.8516C652.162 44.1227 657.944 42.7583 664.293 42.7583C670.372 42.7583 675.033 44.0822 678.275 46.73C681.517 49.3778 683.138 53.4035 683.138 58.8071V89H674.506ZM670.858 68.0068L666.076 68.1689C662.483 68.277 659.808 68.9255 658.052 70.1143C656.296 71.3031 655.417 73.1133 655.417 75.5449C655.417 79.0303 657.417 80.7729 661.416 80.7729C664.279 80.7729 666.562 79.9489 668.265 78.3008C669.994 76.6527 670.858 74.4642 670.858 71.7354V68.0068ZM689.42 43.6904H702.956L711.507 69.1821C712.237 71.3976 712.737 74.0184 713.007 77.0444H713.25C713.547 74.2616 714.128 71.6408 714.993 69.1821L723.382 43.6904H736.634L717.465 94.7954C715.709 99.5236 713.196 103.063 709.927 105.414C706.685 107.764 702.889 108.939 698.539 108.939C696.404 108.939 694.31 108.71 692.257 108.25V98.4429C693.743 98.7941 695.364 98.9697 697.12 98.9697C699.309 98.9697 701.213 98.2943 702.834 96.9434C704.483 95.6195 705.766 93.6066 706.685 90.9048L707.414 88.6758L689.42 43.6904ZM783.808 79.9624C785.97 79.9624 788.563 79.4896 791.589 78.5439V87.7437C788.509 89.1216 784.727 89.8105 780.242 89.8105C775.297 89.8105 771.69 88.5677 769.421 86.082C767.178 83.5693 766.057 79.8138 766.057 74.8154V52.9712H760.14V47.7432L766.949 43.6094L770.515 34.0449H778.418V43.6904H791.103V52.9712H778.418V74.8154C778.418 76.5716 778.904 77.8685 779.877 78.7061C780.877 79.5436 782.187 79.9624 783.808 79.9624ZM810.637 66.2642C810.637 70.7492 811.367 74.14 812.826 76.4365C814.312 78.7331 816.716 79.8813 820.04 79.8813C823.336 79.8813 825.7 78.7466 827.132 76.4771C828.591 74.1805 829.32 70.7762 829.32 66.2642C829.32 61.7791 828.591 58.4154 827.132 56.1729C825.673 53.9303 823.282 52.8091 819.958 52.8091C816.662 52.8091 814.285 53.9303 812.826 56.1729C811.367 58.3883 810.637 61.7521 810.637 66.2642ZM841.965 66.2642C841.965 73.6401 840.02 79.4085 836.129 83.5693C832.238 87.7301 826.821 89.8105 819.877 89.8105C815.528 89.8105 811.691 88.8649 808.368 86.9736C805.044 85.0553 802.491 82.313 800.708 78.7466C798.925 75.1802 798.033 71.0194 798.033 66.2642C798.033 58.8612 799.965 53.1063 803.829 48.9995C807.692 44.8927 813.123 42.8394 820.121 42.8394C824.471 42.8394 828.307 43.785 831.63 45.6763C834.954 47.5675 837.507 50.2829 839.29 53.8223C841.073 57.3617 841.965 61.509 841.965 66.2642Z" fill="#55ACEE"/>
<path d="M118.576 172.962C120.737 172.962 123.331 172.49 126.357 171.544V180.744C123.277 182.122 119.494 182.811 115.009 182.811C110.065 182.811 106.458 181.568 104.188 179.082C101.946 176.569 100.825 172.814 100.825 167.815V145.971H94.9077V140.743L101.716 136.609L105.283 127.045H113.186V136.69H125.871V145.971H113.186V167.815C113.186 169.572 113.672 170.868 114.645 171.706C115.644 172.544 116.955 172.962 118.576 172.962ZM145.405 159.264C145.405 163.749 146.134 167.14 147.593 169.437C149.079 171.733 151.484 172.881 154.807 172.881C158.103 172.881 160.467 171.747 161.899 169.477C163.358 167.181 164.088 163.776 164.088 159.264C164.088 154.779 163.358 151.415 161.899 149.173C160.44 146.93 158.049 145.809 154.726 145.809C151.43 145.809 149.052 146.93 147.593 149.173C146.134 151.388 145.405 154.752 145.405 159.264ZM176.732 159.264C176.732 166.64 174.787 172.409 170.896 176.569C167.006 180.73 161.589 182.811 154.645 182.811C150.295 182.811 146.458 181.865 143.135 179.974C139.812 178.055 137.259 175.313 135.476 171.747C133.692 168.18 132.801 164.019 132.801 159.264C132.801 151.861 134.733 146.106 138.596 142C142.46 137.893 147.89 135.839 154.888 135.839C159.238 135.839 163.075 136.785 166.398 138.676C169.721 140.568 172.274 143.283 174.058 146.822C175.841 150.362 176.732 154.509 176.732 159.264ZM247.939 136.69V142.972L240.847 144.796C242.144 146.822 242.792 149.092 242.792 151.604C242.792 156.468 241.09 160.264 237.686 162.993C234.308 165.694 229.607 167.045 223.582 167.045L221.353 166.924L219.529 166.721C218.259 167.694 217.625 168.775 217.625 169.963C217.625 171.747 219.894 172.638 224.433 172.638H232.133C237.105 172.638 240.887 173.705 243.481 175.84C246.102 177.974 247.412 181.108 247.412 185.242C247.412 190.538 245.197 194.645 240.766 197.562C236.362 200.48 230.026 201.939 221.758 201.939C215.436 201.939 210.6 200.832 207.25 198.616C203.926 196.428 202.265 193.348 202.265 189.376C202.265 186.647 203.116 184.364 204.818 182.527C206.52 180.69 209.019 179.379 212.315 178.596C211.046 178.055 209.938 177.177 208.992 175.961C208.047 174.719 207.574 173.408 207.574 172.03C207.574 170.301 208.074 168.869 209.073 167.734C210.073 166.573 211.518 165.438 213.41 164.33C211.032 163.303 209.141 161.655 207.736 159.386C206.358 157.116 205.669 154.441 205.669 151.361C205.669 146.417 207.277 142.594 210.492 139.892C213.707 137.19 218.3 135.839 224.271 135.839C225.541 135.839 227.04 135.961 228.77 136.204C230.526 136.42 231.647 136.582 232.133 136.69H247.939ZM212.964 188.403C212.964 190.105 213.774 191.443 215.396 192.416C217.044 193.388 219.34 193.875 222.285 193.875C226.716 193.875 230.188 193.267 232.701 192.051C235.213 190.835 236.47 189.173 236.47 187.066C236.47 185.364 235.727 184.188 234.241 183.54C232.755 182.892 230.458 182.567 227.351 182.567H220.948C218.678 182.567 216.773 183.094 215.233 184.148C213.72 185.229 212.964 186.647 212.964 188.403ZM217.462 151.523C217.462 153.982 218.016 155.927 219.124 157.359C220.259 158.791 221.974 159.507 224.271 159.507C226.595 159.507 228.297 158.791 229.377 157.359C230.458 155.927 230.999 153.982 230.999 151.523C230.999 146.066 228.756 143.337 224.271 143.337C219.732 143.337 217.462 146.066 217.462 151.523ZM274.201 144.634C271.58 144.634 269.527 145.471 268.041 147.146C266.555 148.795 265.703 151.145 265.487 154.198H282.833C282.779 151.145 281.982 148.795 280.442 147.146C278.902 145.471 276.821 144.634 274.201 144.634ZM275.943 182.811C268.648 182.811 262.948 180.798 258.841 176.772C254.734 172.746 252.681 167.045 252.681 159.669C252.681 152.077 254.572 146.214 258.354 142.081C262.164 137.92 267.419 135.839 274.12 135.839C280.523 135.839 285.508 137.663 289.074 141.311C292.641 144.958 294.424 149.997 294.424 156.427V162.425H265.204C265.339 165.938 266.379 168.68 268.324 170.652C270.27 172.625 272.998 173.611 276.511 173.611C279.24 173.611 281.82 173.327 284.251 172.76C286.683 172.192 289.223 171.287 291.871 170.044V179.609C289.709 180.69 287.399 181.487 284.94 182C282.482 182.54 279.483 182.811 275.943 182.811ZM323.563 172.962C325.724 172.962 328.318 172.49 331.344 171.544V180.744C328.264 182.122 324.482 182.811 319.997 182.811C315.052 182.811 311.445 181.568 309.176 179.082C306.933 176.569 305.812 172.814 305.812 167.815V145.971H299.895V140.743L306.704 136.609L310.27 127.045H318.173V136.69H330.858V145.971H318.173V167.815C318.173 169.572 318.659 170.868 319.632 171.706C320.632 172.544 321.942 172.962 323.563 172.962ZM361.578 124.978C361.578 120.952 363.82 118.939 368.305 118.939C372.79 118.939 375.033 120.952 375.033 124.978C375.033 126.896 374.465 128.396 373.331 129.477C372.223 130.53 370.548 131.057 368.305 131.057C363.82 131.057 361.578 129.031 361.578 124.978ZM374.465 182H362.104V136.69H374.465V182ZM429.299 182H416.938V155.536C416.938 152.266 416.357 149.821 415.195 148.2C414.034 146.552 412.183 145.728 409.643 145.728C406.185 145.728 403.686 146.89 402.146 149.213C400.605 151.51 399.835 155.333 399.835 160.683V182H387.475V136.69H396.917L398.579 142.486H399.268C400.646 140.297 402.537 138.649 404.942 137.542C407.374 136.407 410.129 135.839 413.209 135.839C418.478 135.839 422.477 137.271 425.206 140.135C427.934 142.972 429.299 147.079 429.299 152.456V182ZM467.232 135.839C472.582 135.839 476.77 137.933 479.796 142.121C482.822 146.282 484.335 151.996 484.335 159.264C484.335 166.748 482.768 172.544 479.634 176.65C476.527 180.757 472.285 182.811 466.908 182.811C461.586 182.811 457.411 180.879 454.385 177.015H453.534L451.467 182H442.024V118.939H454.385V133.61C454.385 135.475 454.223 138.46 453.899 142.567H454.385C457.276 138.082 461.559 135.839 467.232 135.839ZM463.261 145.728C460.208 145.728 457.979 146.674 456.574 148.565C455.169 150.429 454.439 153.523 454.385 157.846V159.183C454.385 164.046 455.101 167.532 456.533 169.639C457.992 171.747 460.289 172.8 463.423 172.8C465.963 172.8 467.975 171.639 469.461 169.315C470.974 166.964 471.731 163.56 471.731 159.102C471.731 154.644 470.974 151.307 469.461 149.092C467.948 146.849 465.882 145.728 463.261 145.728ZM504.396 159.264C504.396 163.749 505.125 167.14 506.584 169.437C508.07 171.733 510.475 172.881 513.798 172.881C517.095 172.881 519.459 171.747 520.891 169.477C522.35 167.181 523.079 163.776 523.079 159.264C523.079 154.779 522.35 151.415 520.891 149.173C519.432 146.93 517.041 145.809 513.717 145.809C510.421 145.809 508.043 146.93 506.584 149.173C505.125 151.388 504.396 154.752 504.396 159.264ZM535.724 159.264C535.724 166.64 533.778 172.409 529.888 176.569C525.997 180.73 520.58 182.811 513.636 182.811C509.286 182.811 505.45 181.865 502.126 179.974C498.803 178.055 496.25 175.313 494.467 171.747C492.684 168.18 491.792 164.019 491.792 159.264C491.792 151.861 493.724 146.106 497.587 142C501.451 137.893 506.882 135.839 513.879 135.839C518.229 135.839 522.066 136.785 525.389 138.676C528.712 140.568 531.266 143.283 533.049 146.822C534.832 150.362 535.724 154.509 535.724 159.264ZM578.034 182L576.373 176.205H575.724C574.4 178.312 572.522 179.947 570.091 181.108C567.659 182.243 564.89 182.811 561.783 182.811C556.46 182.811 552.448 181.392 549.746 178.555C547.044 175.691 545.693 171.584 545.693 166.235V136.69H558.054V163.155C558.054 166.424 558.635 168.883 559.797 170.531C560.959 172.152 562.809 172.962 565.349 172.962C568.807 172.962 571.307 171.814 572.847 169.518C574.387 167.194 575.157 163.357 575.157 158.008V136.69H587.518V182H578.034ZM642.311 182H629.95V155.536C629.95 152.266 629.369 149.821 628.207 148.2C627.045 146.552 625.194 145.728 622.655 145.728C619.196 145.728 616.697 146.89 615.157 149.213C613.617 151.51 612.847 155.333 612.847 160.683V182H600.486V136.69H609.929L611.591 142.486H612.28C613.658 140.297 615.549 138.649 617.954 137.542C620.385 136.407 623.141 135.839 626.221 135.839C631.49 135.839 635.488 137.271 638.217 140.135C640.946 142.972 642.311 147.079 642.311 152.456V182ZM669.383 182.811C664.06 182.811 659.872 180.744 656.819 176.61C653.793 172.476 652.28 166.748 652.28 159.426C652.28 151.996 653.82 146.214 656.9 142.081C660.007 137.92 664.276 135.839 669.707 135.839C675.408 135.839 679.758 138.055 682.757 142.486H683.162C682.541 139.109 682.23 136.096 682.23 133.448V118.939H694.631V182H685.148L682.757 176.124H682.23C679.42 180.582 675.138 182.811 669.383 182.811ZM673.719 172.962C676.88 172.962 679.19 172.044 680.649 170.207C682.135 168.369 682.946 165.249 683.081 160.845V159.507C683.081 154.644 682.325 151.159 680.812 149.051C679.326 146.944 676.894 145.89 673.517 145.89C670.761 145.89 668.613 147.065 667.073 149.416C665.56 151.74 664.803 155.13 664.803 159.588C664.803 164.046 665.573 167.397 667.113 169.639C668.653 171.855 670.855 172.962 673.719 172.962ZM741.481 182H729.12V118.939H741.481V182ZM773.254 144.634C770.634 144.634 768.58 145.471 767.094 147.146C765.608 148.795 764.757 151.145 764.541 154.198H781.887C781.833 151.145 781.036 148.795 779.496 147.146C777.956 145.471 775.875 144.634 773.254 144.634ZM774.997 182.811C767.702 182.811 762.001 180.798 757.895 176.772C753.788 172.746 751.734 167.045 751.734 159.669C751.734 152.077 753.626 146.214 757.408 142.081C761.218 137.92 766.473 135.839 773.173 135.839C779.577 135.839 784.562 137.663 788.128 141.311C791.694 144.958 793.478 149.997 793.478 156.427V162.425H764.257C764.392 165.938 765.433 168.68 767.378 170.652C769.323 172.625 772.052 173.611 775.564 173.611C778.293 173.611 780.874 173.327 783.305 172.76C785.737 172.192 788.277 171.287 790.924 170.044V179.609C788.763 180.69 786.453 181.487 783.994 182C781.535 182.54 778.536 182.811 774.997 182.811ZM832.303 182L829.912 175.84H829.587C827.507 178.461 825.359 180.284 823.144 181.311C820.955 182.311 818.091 182.811 814.552 182.811C810.202 182.811 806.771 181.568 804.258 179.082C801.772 176.596 800.529 173.057 800.529 168.464C800.529 163.655 802.204 160.115 805.555 157.846C808.932 155.549 814.011 154.279 820.793 154.036L828.655 153.793V151.807C828.655 147.214 826.305 144.917 821.604 144.917C817.983 144.917 813.728 146.012 808.837 148.2L804.744 139.852C809.959 137.123 815.741 135.758 822.09 135.758C828.169 135.758 832.83 137.082 836.072 139.73C839.314 142.378 840.935 146.403 840.935 151.807V182H832.303ZM828.655 161.007L823.873 161.169C820.28 161.277 817.605 161.925 815.849 163.114C814.092 164.303 813.214 166.113 813.214 168.545C813.214 172.03 815.214 173.773 819.212 173.773C822.076 173.773 824.359 172.949 826.062 171.301C827.791 169.653 828.655 167.464 828.655 164.735V161.007ZM868.048 182.811C862.725 182.811 858.537 180.744 855.484 176.61C852.458 172.476 850.945 166.748 850.945 159.426C850.945 151.996 852.485 146.214 855.565 142.081C858.673 137.92 862.941 135.839 868.372 135.839C874.073 135.839 878.423 138.055 881.422 142.486H881.827C881.206 139.109 880.895 136.096 880.895 133.448V118.939H893.296V182H883.813L881.422 176.124H880.895C878.085 180.582 873.803 182.811 868.048 182.811ZM872.384 172.962C875.545 172.962 877.855 172.044 879.314 170.207C880.8 168.369 881.611 165.249 881.746 160.845V159.507C881.746 154.644 880.99 151.159 879.477 149.051C877.991 146.944 875.559 145.89 872.182 145.89C869.426 145.89 867.278 147.065 865.738 149.416C864.225 151.74 863.468 155.13 863.468 159.588C863.468 164.046 864.238 167.397 865.778 169.639C867.318 171.855 869.52 172.962 872.384 172.962ZM937.836 168.545C937.836 173.192 936.215 176.731 932.973 179.163C929.757 181.595 924.935 182.811 918.504 182.811C915.208 182.811 912.398 182.581 910.075 182.122C907.751 181.689 905.576 181.041 903.55 180.176V169.963C905.846 171.044 908.427 171.949 911.291 172.679C914.181 173.408 916.721 173.773 918.91 173.773C923.395 173.773 925.637 172.476 925.637 169.882C925.637 168.91 925.34 168.126 924.746 167.532C924.151 166.91 923.125 166.221 921.666 165.465C920.207 164.681 918.261 163.776 915.83 162.75C912.344 161.291 909.778 159.94 908.129 158.697C906.508 157.454 905.319 156.035 904.563 154.441C903.833 152.82 903.469 150.834 903.469 148.484C903.469 144.458 905.022 141.351 908.129 139.163C911.264 136.947 915.694 135.839 921.422 135.839C926.88 135.839 932.189 137.028 937.35 139.406L933.621 148.322C931.352 147.349 929.231 146.552 927.258 145.931C925.286 145.309 923.273 144.999 921.22 144.999C917.572 144.999 915.749 145.985 915.749 147.957C915.749 149.065 916.329 150.024 917.491 150.834C918.68 151.645 921.26 152.847 925.232 154.441C928.771 155.873 931.365 157.211 933.013 158.454C934.661 159.696 935.877 161.128 936.661 162.75C937.444 164.371 937.836 166.302 937.836 168.545Z" fill="#55ACEE"/>
<path d="M338.245 236.771H343.584V244.409C342.753 244.674 341.908 244.875 341.049 245.011C340.189 245.147 339.194 245.215 338.062 245.215C335.685 245.215 333.834 244.509 332.509 243.099C331.184 241.681 330.521 239.697 330.521 237.147C330.521 235.515 330.847 234.086 331.499 232.861C332.158 231.63 333.103 230.691 334.335 230.047C335.567 229.395 337.01 229.069 338.664 229.069C340.34 229.069 341.901 229.377 343.348 229.993L342.639 231.604C341.221 231.003 339.856 230.702 338.546 230.702C336.634 230.702 335.141 231.271 334.066 232.41C332.992 233.549 332.455 235.128 332.455 237.147C332.455 239.267 332.971 240.875 334.002 241.971C335.04 243.066 336.562 243.614 338.567 243.614C339.656 243.614 340.719 243.489 341.758 243.238V238.404H338.245V236.771ZM352.468 233.012C352.991 233.012 353.46 233.055 353.875 233.141L353.628 234.795C353.141 234.688 352.711 234.634 352.339 234.634C351.386 234.634 350.57 235.021 349.89 235.794C349.216 236.567 348.88 237.531 348.88 238.684V245H347.097V233.227H348.568L348.772 235.407H348.858C349.295 234.641 349.822 234.05 350.438 233.635C351.053 233.219 351.73 233.012 352.468 233.012ZM366.239 239.103C366.239 241.022 365.756 242.522 364.789 243.604C363.822 244.678 362.487 245.215 360.782 245.215C359.729 245.215 358.795 244.968 357.979 244.474C357.162 243.979 356.532 243.271 356.088 242.347C355.644 241.423 355.422 240.341 355.422 239.103C355.422 237.183 355.902 235.69 356.861 234.623C357.821 233.549 359.153 233.012 360.857 233.012C362.505 233.012 363.812 233.56 364.778 234.655C365.752 235.751 366.239 237.233 366.239 239.103ZM357.27 239.103C357.27 240.606 357.57 241.752 358.172 242.54C358.773 243.328 359.658 243.722 360.825 243.722C361.993 243.722 362.877 243.331 363.479 242.551C364.087 241.763 364.392 240.614 364.392 239.103C364.392 237.606 364.087 236.471 363.479 235.697C362.877 234.917 361.985 234.526 360.804 234.526C359.636 234.526 358.756 234.91 358.161 235.676C357.567 236.442 357.27 237.584 357.27 239.103ZM378.99 245L376.831 238.093C376.695 237.67 376.441 236.711 376.068 235.214H375.982C375.696 236.467 375.445 237.434 375.23 238.114L373.007 245H370.944L367.732 233.227H369.602C370.361 236.184 370.937 238.437 371.331 239.983C371.732 241.53 371.961 242.572 372.019 243.109H372.104C372.183 242.701 372.309 242.175 372.48 241.53C372.66 240.879 372.813 240.363 372.942 239.983L375.102 233.227H377.035L379.141 239.983C379.542 241.215 379.814 242.25 379.957 243.088H380.043C380.072 242.83 380.147 242.433 380.269 241.896C380.397 241.358 381.146 238.469 382.514 233.227H384.361L381.106 245H378.99ZM392.482 229.295H396.919C399.003 229.295 400.51 229.606 401.441 230.229C402.372 230.853 402.838 231.837 402.838 233.184C402.838 234.115 402.576 234.884 402.054 235.493C401.538 236.095 400.783 236.485 399.787 236.664V236.771C402.172 237.18 403.364 238.433 403.364 240.531C403.364 241.935 402.888 243.031 401.936 243.818C400.99 244.606 399.665 245 397.961 245H392.482V229.295ZM394.309 236.02H397.316C398.605 236.02 399.533 235.819 400.099 235.418C400.664 235.01 400.947 234.326 400.947 233.366C400.947 232.485 400.632 231.852 400.002 231.465C399.372 231.071 398.369 230.874 396.994 230.874H394.309V236.02ZM394.309 237.566V243.442H397.585C398.853 243.442 399.805 243.199 400.442 242.712C401.087 242.218 401.409 241.448 401.409 240.402C401.409 239.428 401.08 238.712 400.421 238.254C399.769 237.796 398.774 237.566 397.435 237.566H394.309ZM411.453 245.215C409.713 245.215 408.338 244.685 407.328 243.625C406.326 242.565 405.824 241.093 405.824 239.21C405.824 237.312 406.29 235.805 407.221 234.688C408.159 233.57 409.416 233.012 410.991 233.012C412.466 233.012 413.634 233.499 414.493 234.473C415.353 235.439 415.782 236.718 415.782 238.308V239.436H407.672C407.708 240.818 408.055 241.867 408.714 242.583C409.38 243.299 410.314 243.657 411.518 243.657C412.785 243.657 414.038 243.392 415.277 242.862V244.452C414.647 244.724 414.049 244.918 413.483 245.032C412.925 245.154 412.248 245.215 411.453 245.215ZM410.97 234.505C410.024 234.505 409.269 234.813 408.703 235.429C408.145 236.045 407.815 236.897 407.715 237.985H413.87C413.87 236.861 413.619 236.002 413.118 235.407C412.617 234.806 411.901 234.505 410.97 234.505ZM422.636 243.743C422.951 243.743 423.255 243.722 423.549 243.679C423.842 243.629 424.075 243.578 424.247 243.528V244.893C424.054 244.986 423.767 245.061 423.388 245.118C423.015 245.183 422.679 245.215 422.378 245.215C420.101 245.215 418.962 244.015 418.962 241.616V234.612H417.275V233.753L418.962 233.012L419.714 230.498H420.745V233.227H424.161V234.612H420.745V241.541C420.745 242.25 420.913 242.794 421.25 243.174C421.587 243.553 422.049 243.743 422.636 243.743ZM430.413 243.743C430.728 243.743 431.033 243.722 431.326 243.679C431.62 243.629 431.853 243.578 432.024 243.528V244.893C431.831 244.986 431.545 245.061 431.165 245.118C430.793 245.183 430.456 245.215 430.155 245.215C427.878 245.215 426.739 244.015 426.739 241.616V234.612H425.053V233.753L426.739 233.012L427.491 230.498H428.522V233.227H431.938V234.612H428.522V241.541C428.522 242.25 428.691 242.794 429.027 243.174C429.364 243.553 429.826 243.743 430.413 243.743ZM439.361 245.215C437.621 245.215 436.246 244.685 435.236 243.625C434.234 242.565 433.732 241.093 433.732 239.21C433.732 237.312 434.198 235.805 435.129 234.688C436.067 233.57 437.324 233.012 438.899 233.012C440.375 233.012 441.542 233.499 442.401 234.473C443.261 235.439 443.69 236.718 443.69 238.308V239.436H435.58C435.616 240.818 435.963 241.867 436.622 242.583C437.288 243.299 438.223 243.657 439.426 243.657C440.693 243.657 441.947 243.392 443.186 242.862V244.452C442.555 244.724 441.957 244.918 441.392 245.032C440.833 245.154 440.156 245.215 439.361 245.215ZM438.878 234.505C437.933 234.505 437.177 234.813 436.611 235.429C436.053 236.045 435.723 236.897 435.623 237.985H441.778C441.778 236.861 441.528 236.002 441.026 235.407C440.525 234.806 439.809 234.505 438.878 234.505ZM452.112 233.012C452.635 233.012 453.104 233.055 453.52 233.141L453.272 234.795C452.785 234.688 452.356 234.634 451.983 234.634C451.031 234.634 450.215 235.021 449.534 235.794C448.861 236.567 448.524 237.531 448.524 238.684V245H446.741V233.227H448.213L448.417 235.407H448.503C448.94 234.641 449.466 234.05 450.082 233.635C450.698 233.219 451.375 233.012 452.112 233.012ZM461.705 245V229.295H463.531V243.346H470.46V245H461.705ZM477.84 245.215C476.1 245.215 474.725 244.685 473.715 243.625C472.712 242.565 472.211 241.093 472.211 239.21C472.211 237.312 472.676 235.805 473.607 234.688C474.546 233.57 475.802 233.012 477.378 233.012C478.853 233.012 480.021 233.499 480.88 234.473C481.739 235.439 482.169 236.718 482.169 238.308V239.436H474.059C474.094 240.818 474.442 241.867 475.101 242.583C475.767 243.299 476.701 243.657 477.904 243.657C479.172 243.657 480.425 243.392 481.664 242.862V244.452C481.034 244.724 480.436 244.918 479.87 245.032C479.312 245.154 478.635 245.215 477.84 245.215ZM477.356 234.505C476.411 234.505 475.656 234.813 475.09 235.429C474.531 236.045 474.202 236.897 474.102 237.985H480.257C480.257 236.861 480.006 236.002 479.505 235.407C479.004 234.806 478.287 234.505 477.356 234.505ZM492.46 245L492.105 243.324H492.02C491.432 244.062 490.845 244.563 490.258 244.828C489.678 245.086 488.951 245.215 488.077 245.215C486.91 245.215 485.993 244.914 485.327 244.312C484.668 243.711 484.339 242.855 484.339 241.745C484.339 239.368 486.24 238.121 490.043 238.007L492.041 237.942V237.212C492.041 236.288 491.84 235.608 491.439 235.171C491.046 234.727 490.412 234.505 489.538 234.505C488.557 234.505 487.447 234.806 486.208 235.407L485.66 234.043C486.24 233.728 486.874 233.481 487.562 233.302C488.256 233.123 488.951 233.033 489.646 233.033C491.049 233.033 492.088 233.345 492.761 233.968C493.441 234.591 493.781 235.59 493.781 236.965V245H492.46ZM488.432 243.743C489.542 243.743 490.412 243.439 491.042 242.83C491.679 242.221 491.998 241.369 491.998 240.273V239.21L490.215 239.285C488.797 239.335 487.773 239.557 487.143 239.951C486.52 240.338 486.208 240.943 486.208 241.767C486.208 242.411 486.401 242.902 486.788 243.238C487.182 243.575 487.73 243.743 488.432 243.743ZM505.479 243.421H505.383C504.559 244.617 503.327 245.215 501.688 245.215C500.148 245.215 498.948 244.688 498.089 243.636C497.237 242.583 496.811 241.086 496.811 239.146C496.811 237.205 497.24 235.697 498.1 234.623C498.959 233.549 500.155 233.012 501.688 233.012C503.285 233.012 504.509 233.592 505.361 234.752H505.501L505.426 233.903L505.383 233.076V228.285H507.166V245H505.716L505.479 243.421ZM501.913 243.722C503.131 243.722 504.011 243.392 504.556 242.733C505.107 242.067 505.383 240.997 505.383 239.521V239.146C505.383 237.477 505.104 236.288 504.545 235.579C503.993 234.863 503.109 234.505 501.892 234.505C500.846 234.505 500.044 234.913 499.485 235.729C498.934 236.539 498.658 237.685 498.658 239.167C498.658 240.671 498.934 241.806 499.485 242.572C500.037 243.339 500.846 243.722 501.913 243.722ZM518.553 241.788C518.553 242.884 518.145 243.729 517.328 244.323C516.512 244.918 515.366 245.215 513.891 245.215C512.329 245.215 511.112 244.968 510.238 244.474V242.819C510.804 243.106 511.409 243.331 512.054 243.496C512.705 243.661 513.332 243.743 513.934 243.743C514.865 243.743 515.581 243.596 516.082 243.303C516.583 243.002 516.834 242.547 516.834 241.938C516.834 241.48 516.633 241.09 516.232 240.768C515.839 240.438 515.065 240.051 513.912 239.607C512.816 239.199 512.036 238.845 511.57 238.544C511.112 238.236 510.768 237.889 510.539 237.502C510.317 237.115 510.206 236.653 510.206 236.116C510.206 235.157 510.596 234.401 511.377 233.85C512.158 233.291 513.228 233.012 514.589 233.012C515.856 233.012 517.095 233.27 518.306 233.785L517.672 235.235C516.49 234.748 515.42 234.505 514.46 234.505C513.615 234.505 512.978 234.637 512.548 234.902C512.118 235.167 511.903 235.533 511.903 235.998C511.903 236.313 511.982 236.582 512.14 236.804C512.304 237.026 512.566 237.237 512.924 237.438C513.282 237.638 513.969 237.928 514.986 238.308C516.383 238.816 517.325 239.328 517.812 239.844C518.306 240.359 518.553 241.007 518.553 241.788ZM523.333 242.443L523.494 242.69C523.308 243.407 523.039 244.237 522.688 245.183C522.338 246.135 521.972 247.02 521.593 247.836H520.25C520.443 247.091 520.655 246.171 520.884 245.075C521.12 243.979 521.285 243.102 521.378 242.443H523.333ZM539.747 236.771H545.086V244.409C544.255 244.674 543.41 244.875 542.551 245.011C541.691 245.147 540.696 245.215 539.564 245.215C537.187 245.215 535.336 244.509 534.011 243.099C532.686 241.681 532.023 239.697 532.023 237.147C532.023 235.515 532.349 234.086 533.001 232.861C533.66 231.63 534.605 230.691 535.837 230.047C537.069 229.395 538.512 229.069 540.166 229.069C541.842 229.069 543.403 229.377 544.85 229.993L544.141 231.604C542.723 231.003 541.358 230.702 540.048 230.702C538.136 230.702 536.643 231.271 535.568 232.41C534.494 233.549 533.957 235.128 533.957 237.147C533.957 239.267 534.473 240.875 535.504 241.971C536.542 243.066 538.064 243.614 540.069 243.614C541.158 243.614 542.221 243.489 543.26 243.238V238.404H539.747V236.771ZM553.572 245.215C551.832 245.215 550.457 244.685 549.447 243.625C548.445 242.565 547.943 241.093 547.943 239.21C547.943 237.312 548.409 235.805 549.34 234.688C550.278 233.57 551.535 233.012 553.11 233.012C554.586 233.012 555.753 233.499 556.612 234.473C557.472 235.439 557.901 236.718 557.901 238.308V239.436H549.791C549.827 240.818 550.174 241.867 550.833 242.583C551.499 243.299 552.434 243.657 553.637 243.657C554.904 243.657 556.158 243.392 557.396 242.862V244.452C556.766 244.724 556.168 244.918 555.603 245.032C555.044 245.154 554.367 245.215 553.572 245.215ZM553.089 234.505C552.144 234.505 551.388 234.813 550.822 235.429C550.264 236.045 549.934 236.897 549.834 237.985H555.989C555.989 236.861 555.739 236.002 555.237 235.407C554.736 234.806 554.02 234.505 553.089 234.505ZM564.755 243.743C565.07 243.743 565.374 243.722 565.668 243.679C565.962 243.629 566.194 243.578 566.366 243.528V244.893C566.173 244.986 565.886 245.061 565.507 245.118C565.134 245.183 564.798 245.215 564.497 245.215C562.22 245.215 561.081 244.015 561.081 241.616V234.612H559.395V233.753L561.081 233.012L561.833 230.498H562.864V233.227H566.28V234.612H562.864V241.541C562.864 242.25 563.033 242.794 563.369 243.174C563.706 243.553 564.168 243.743 564.755 243.743ZM574.713 229.295H579.149C581.233 229.295 582.741 229.606 583.672 230.229C584.603 230.853 585.068 231.837 585.068 233.184C585.068 234.115 584.807 234.884 584.284 235.493C583.769 236.095 583.013 236.485 582.018 236.664V236.771C584.402 237.18 585.595 238.433 585.595 240.531C585.595 241.935 585.118 243.031 584.166 243.818C583.221 244.606 581.896 245 580.191 245H574.713V229.295ZM576.539 236.02H579.547C580.836 236.02 581.763 235.819 582.329 235.418C582.895 235.01 583.178 234.326 583.178 233.366C583.178 232.485 582.863 231.852 582.232 231.465C581.602 231.071 580.6 230.874 579.225 230.874H576.539V236.02ZM576.539 237.566V243.442H579.815C581.083 243.442 582.035 243.199 582.673 242.712C583.317 242.218 583.64 241.448 583.64 240.402C583.64 239.428 583.31 238.712 582.651 238.254C582 237.796 581.004 237.566 579.665 237.566H576.539ZM593.684 245.215C591.943 245.215 590.568 244.685 589.559 243.625C588.556 242.565 588.055 241.093 588.055 239.21C588.055 237.312 588.52 235.805 589.451 234.688C590.389 233.57 591.646 233.012 593.222 233.012C594.697 233.012 595.864 233.499 596.724 234.473C597.583 235.439 598.013 236.718 598.013 238.308V239.436H589.902C589.938 240.818 590.285 241.867 590.944 242.583C591.61 243.299 592.545 243.657 593.748 243.657C595.016 243.657 596.269 243.392 597.508 242.862V244.452C596.878 244.724 596.28 244.918 595.714 245.032C595.155 245.154 594.479 245.215 593.684 245.215ZM593.2 234.505C592.255 234.505 591.499 234.813 590.934 235.429C590.375 236.045 590.046 236.897 589.945 237.985H596.101C596.101 236.861 595.85 236.002 595.349 235.407C594.847 234.806 594.131 234.505 593.2 234.505ZM604.866 243.743C605.181 243.743 605.486 243.722 605.779 243.679C606.073 243.629 606.306 243.578 606.478 243.528V244.893C606.284 244.986 605.998 245.061 605.618 245.118C605.246 245.183 604.909 245.215 604.608 245.215C602.331 245.215 601.192 244.015 601.192 241.616V234.612H599.506V233.753L601.192 233.012L601.944 230.498H602.976V233.227H606.392V234.612H602.976V241.541C602.976 242.25 603.144 242.794 603.48 243.174C603.817 243.553 604.279 243.743 604.866 243.743ZM612.644 243.743C612.959 243.743 613.263 243.722 613.557 243.679C613.85 243.629 614.083 243.578 614.255 243.528V244.893C614.062 244.986 613.775 245.061 613.396 245.118C613.023 245.183 612.687 245.215 612.386 245.215C610.108 245.215 608.97 244.015 608.97 241.616V234.612H607.283V233.753L608.97 233.012L609.722 230.498H610.753V233.227H614.169V234.612H610.753V241.541C610.753 242.25 610.921 242.794 611.258 243.174C611.594 243.553 612.056 243.743 612.644 243.743ZM621.592 245.215C619.852 245.215 618.477 244.685 617.467 243.625C616.464 242.565 615.963 241.093 615.963 239.21C615.963 237.312 616.428 235.805 617.359 234.688C618.298 233.57 619.554 233.012 621.13 233.012C622.605 233.012 623.772 233.499 624.632 234.473C625.491 235.439 625.921 236.718 625.921 238.308V239.436H617.811C617.846 240.818 618.194 241.867 618.853 242.583C619.519 243.299 620.453 243.657 621.656 243.657C622.924 243.657 624.177 243.392 625.416 242.862V244.452C624.786 244.724 624.188 244.918 623.622 245.032C623.063 245.154 622.387 245.215 621.592 245.215ZM621.108 234.505C620.163 234.505 619.408 234.813 618.842 235.429C618.283 236.045 617.954 236.897 617.854 237.985H624.009C624.009 236.861 623.758 236.002 623.257 235.407C622.756 234.806 622.039 234.505 621.108 234.505ZM634.343 233.012C634.866 233.012 635.335 233.055 635.75 233.141L635.503 234.795C635.016 234.688 634.586 234.634 634.214 234.634C633.261 234.634 632.445 235.021 631.765 235.794C631.091 236.567 630.755 237.531 630.755 238.684V245H628.972V233.227H630.443L630.647 235.407H630.733C631.17 234.641 631.697 234.05 632.312 233.635C632.928 233.219 633.605 233.012 634.343 233.012ZM650.66 230.702C648.934 230.702 647.57 231.279 646.567 232.432C645.572 233.577 645.074 235.149 645.074 237.147C645.074 239.203 645.554 240.793 646.514 241.917C647.48 243.034 648.855 243.593 650.639 243.593C651.734 243.593 652.984 243.396 654.388 243.002V244.603C653.299 245.011 651.956 245.215 650.359 245.215C648.046 245.215 646.259 244.513 644.999 243.109C643.746 241.706 643.119 239.711 643.119 237.126C643.119 235.507 643.42 234.09 644.021 232.872C644.63 231.655 645.504 230.716 646.643 230.058C647.788 229.399 649.135 229.069 650.682 229.069C652.329 229.069 653.768 229.37 655 229.972L654.227 231.54C653.038 230.981 651.849 230.702 650.66 230.702ZM659.329 245H657.546V228.285H659.329V245ZM664.894 245H663.11V233.227H664.894V245ZM662.96 230.036C662.96 229.628 663.06 229.331 663.261 229.145C663.461 228.951 663.712 228.854 664.013 228.854C664.299 228.854 664.546 228.951 664.754 229.145C664.962 229.338 665.065 229.635 665.065 230.036C665.065 230.437 664.962 230.738 664.754 230.938C664.546 231.132 664.299 231.229 664.013 231.229C663.712 231.229 663.461 231.132 663.261 230.938C663.06 230.738 662.96 230.437 662.96 230.036ZM673.648 245.215C671.908 245.215 670.533 244.685 669.523 243.625C668.521 242.565 668.02 241.093 668.02 239.21C668.02 237.312 668.485 235.805 669.416 234.688C670.354 233.57 671.611 233.012 673.187 233.012C674.662 233.012 675.829 233.499 676.688 234.473C677.548 235.439 677.978 236.718 677.978 238.308V239.436H669.867C669.903 240.818 670.25 241.867 670.909 242.583C671.575 243.299 672.51 243.657 673.713 243.657C674.98 243.657 676.234 243.392 677.473 242.862V244.452C676.842 244.724 676.244 244.918 675.679 245.032C675.12 245.154 674.443 245.215 673.648 245.215ZM673.165 234.505C672.22 234.505 671.464 234.813 670.898 235.429C670.34 236.045 670.01 236.897 669.91 237.985H676.065C676.065 236.861 675.815 236.002 675.313 235.407C674.812 234.806 674.096 234.505 673.165 234.505ZM689.085 245V237.384C689.085 236.424 688.867 235.708 688.43 235.235C687.993 234.763 687.309 234.526 686.378 234.526C685.146 234.526 684.244 234.859 683.671 235.525C683.098 236.191 682.812 237.291 682.812 238.823V245H681.028V233.227H682.479L682.769 234.838H682.854C683.22 234.258 683.732 233.81 684.391 233.495C685.049 233.173 685.784 233.012 686.593 233.012C688.011 233.012 689.078 233.355 689.794 234.043C690.51 234.723 690.868 235.815 690.868 237.319V245H689.085ZM698.345 243.743C698.66 243.743 698.964 243.722 699.258 243.679C699.551 243.629 699.784 243.578 699.956 243.528V244.893C699.763 244.986 699.476 245.061 699.097 245.118C698.724 245.183 698.388 245.215 698.087 245.215C695.81 245.215 694.671 244.015 694.671 241.616V234.612H692.984V233.753L694.671 233.012L695.423 230.498H696.454V233.227H699.87V234.612H696.454V241.541C696.454 242.25 696.622 242.794 696.959 243.174C697.296 243.553 697.757 243.743 698.345 243.743ZM704.188 242.443L704.35 242.69C704.163 243.407 703.895 244.237 703.544 245.183C703.193 246.135 702.828 247.02 702.448 247.836H701.105C701.299 247.091 701.51 246.171 701.739 245.075C701.976 243.979 702.14 243.102 702.233 242.443H704.188Z" fill="white"/>
<path d="M360.758 280L358.803 275.005H352.508L350.574 280H348.727L354.936 264.23H356.472L362.648 280H360.758ZM358.233 273.361L356.407 268.495C356.171 267.879 355.927 267.124 355.677 266.229C355.519 266.916 355.294 267.672 355 268.495L353.152 273.361H358.233ZM369.244 280.215C367.54 280.215 366.218 279.692 365.28 278.646C364.349 277.594 363.884 276.108 363.884 274.188C363.884 272.219 364.356 270.697 365.302 269.623C366.254 268.549 367.608 268.012 369.362 268.012C369.928 268.012 370.494 268.073 371.06 268.194C371.625 268.316 372.069 268.459 372.392 268.624L371.844 270.139C371.45 269.981 371.02 269.852 370.555 269.752C370.089 269.645 369.677 269.591 369.319 269.591C366.927 269.591 365.731 271.116 365.731 274.167C365.731 275.614 366.021 276.724 366.602 277.497C367.189 278.271 368.055 278.657 369.201 278.657C370.182 278.657 371.188 278.446 372.22 278.023V279.603C371.432 280.011 370.44 280.215 369.244 280.215ZM383.08 280V272.384C383.08 271.424 382.862 270.708 382.425 270.235C381.988 269.763 381.304 269.526 380.373 269.526C379.134 269.526 378.228 269.863 377.655 270.536C377.09 271.209 376.807 272.312 376.807 273.845V280H375.023V263.285H376.807V268.345C376.807 268.953 376.778 269.458 376.721 269.859H376.828C377.179 269.294 377.677 268.85 378.321 268.527C378.973 268.198 379.714 268.033 380.545 268.033C381.984 268.033 383.062 268.377 383.778 269.064C384.502 269.745 384.863 270.83 384.863 272.319V280H383.08ZM390.32 280H388.537V268.227H390.32V280ZM388.387 265.036C388.387 264.628 388.487 264.331 388.688 264.145C388.888 263.951 389.139 263.854 389.439 263.854C389.726 263.854 389.973 263.951 390.181 264.145C390.388 264.338 390.492 264.635 390.492 265.036C390.492 265.437 390.388 265.738 390.181 265.938C389.973 266.132 389.726 266.229 389.439 266.229C389.139 266.229 388.888 266.132 388.688 265.938C388.487 265.738 388.387 265.437 388.387 265.036ZM399.075 280.215C397.335 280.215 395.96 279.685 394.95 278.625C393.948 277.565 393.446 276.093 393.446 274.21C393.446 272.312 393.912 270.805 394.843 269.688C395.781 268.57 397.038 268.012 398.613 268.012C400.089 268.012 401.256 268.499 402.115 269.473C402.975 270.439 403.404 271.718 403.404 273.308V274.436H395.294C395.33 275.818 395.677 276.867 396.336 277.583C397.002 278.299 397.937 278.657 399.14 278.657C400.407 278.657 401.66 278.392 402.899 277.862V279.452C402.269 279.724 401.671 279.918 401.105 280.032C400.547 280.154 399.87 280.215 399.075 280.215ZM398.592 269.505C397.646 269.505 396.891 269.813 396.325 270.429C395.767 271.045 395.437 271.897 395.337 272.985H401.492C401.492 271.861 401.242 271.002 400.74 270.407C400.239 269.806 399.523 269.505 398.592 269.505ZM409.033 280L404.564 268.227H406.477L409.012 275.209C409.585 276.842 409.921 277.902 410.021 278.389H410.107C410.186 278.009 410.433 277.225 410.849 276.036C411.271 274.84 412.213 272.237 413.674 268.227H415.586L411.117 280H409.033ZM422.45 280.215C420.71 280.215 419.335 279.685 418.325 278.625C417.323 277.565 416.821 276.093 416.821 274.21C416.821 272.312 417.287 270.805 418.218 269.688C419.156 268.57 420.413 268.012 421.988 268.012C423.464 268.012 424.631 268.499 425.49 269.473C426.35 270.439 426.779 271.718 426.779 273.308V274.436H418.669C418.705 275.818 419.052 276.867 419.711 277.583C420.377 278.299 421.312 278.657 422.515 278.657C423.782 278.657 425.035 278.392 426.274 277.862V279.452C425.644 279.724 425.046 279.918 424.48 280.032C423.922 280.154 423.245 280.215 422.45 280.215ZM421.967 269.505C421.021 269.505 420.266 269.813 419.7 270.429C419.142 271.045 418.812 271.897 418.712 272.985H424.867C424.867 271.861 424.617 271.002 424.115 270.407C423.614 269.806 422.898 269.505 421.967 269.505ZM435.813 264.295H440.25C442.334 264.295 443.841 264.606 444.772 265.229C445.703 265.853 446.169 266.837 446.169 268.184C446.169 269.115 445.908 269.884 445.385 270.493C444.869 271.095 444.114 271.485 443.118 271.664V271.771C445.503 272.18 446.695 273.433 446.695 275.531C446.695 276.935 446.219 278.031 445.267 278.818C444.321 279.606 442.996 280 441.292 280H435.813V264.295ZM437.64 271.02H440.647C441.937 271.02 442.864 270.819 443.43 270.418C443.995 270.01 444.278 269.326 444.278 268.366C444.278 267.485 443.963 266.852 443.333 266.465C442.703 266.071 441.7 265.874 440.325 265.874H437.64V271.02ZM437.64 272.566V278.442H440.916C442.184 278.442 443.136 278.199 443.773 277.712C444.418 277.218 444.74 276.448 444.74 275.402C444.74 274.428 444.411 273.712 443.752 273.254C443.1 272.796 442.105 272.566 440.766 272.566H437.64ZM454.784 280.215C453.044 280.215 451.669 279.685 450.659 278.625C449.657 277.565 449.155 276.093 449.155 274.21C449.155 272.312 449.621 270.805 450.552 269.688C451.49 268.57 452.747 268.012 454.322 268.012C455.798 268.012 456.965 268.499 457.824 269.473C458.684 270.439 459.113 271.718 459.113 273.308V274.436H451.003C451.039 275.818 451.386 276.867 452.045 277.583C452.711 278.299 453.646 278.657 454.849 278.657C456.116 278.657 457.369 278.392 458.608 277.862V279.452C457.978 279.724 457.38 279.918 456.814 280.032C456.256 280.154 455.579 280.215 454.784 280.215ZM454.301 269.505C453.355 269.505 452.6 269.813 452.034 270.429C451.476 271.045 451.146 271.897 451.046 272.985H457.201C457.201 271.861 456.951 271.002 456.449 270.407C455.948 269.806 455.232 269.505 454.301 269.505ZM465.967 278.743C466.282 278.743 466.586 278.722 466.88 278.679C467.174 278.629 467.406 278.578 467.578 278.528V279.893C467.385 279.986 467.098 280.061 466.719 280.118C466.346 280.183 466.01 280.215 465.709 280.215C463.432 280.215 462.293 279.015 462.293 276.616V269.612H460.606V268.753L462.293 268.012L463.045 265.498H464.076V268.227H467.492V269.612H464.076V276.541C464.076 277.25 464.244 277.794 464.581 278.174C464.918 278.553 465.38 278.743 465.967 278.743ZM473.744 278.743C474.059 278.743 474.364 278.722 474.657 278.679C474.951 278.629 475.184 278.578 475.355 278.528V279.893C475.162 279.986 474.876 280.061 474.496 280.118C474.124 280.183 473.787 280.215 473.486 280.215C471.209 280.215 470.07 279.015 470.07 276.616V269.612H468.384V268.753L470.07 268.012L470.822 265.498H471.854V268.227H475.27V269.612H471.854V276.541C471.854 277.25 472.022 277.794 472.358 278.174C472.695 278.553 473.157 278.743 473.744 278.743ZM482.692 280.215C480.952 280.215 479.577 279.685 478.567 278.625C477.565 277.565 477.063 276.093 477.063 274.21C477.063 272.312 477.529 270.805 478.46 269.688C479.398 268.57 480.655 268.012 482.23 268.012C483.706 268.012 484.873 268.499 485.732 269.473C486.592 270.439 487.021 271.718 487.021 273.308V274.436H478.911C478.947 275.818 479.294 276.867 479.953 277.583C480.619 278.299 481.554 278.657 482.757 278.657C484.024 278.657 485.278 278.392 486.517 277.862V279.452C485.886 279.724 485.288 279.918 484.723 280.032C484.164 280.154 483.487 280.215 482.692 280.215ZM482.209 269.505C481.264 269.505 480.508 269.813 479.942 270.429C479.384 271.045 479.054 271.897 478.954 272.985H485.109C485.109 271.861 484.859 271.002 484.357 270.407C483.856 269.806 483.14 269.505 482.209 269.505ZM495.443 268.012C495.966 268.012 496.435 268.055 496.851 268.141L496.604 269.795C496.117 269.688 495.687 269.634 495.314 269.634C494.362 269.634 493.546 270.021 492.865 270.794C492.192 271.567 491.855 272.531 491.855 273.684V280H490.072V268.227H491.544L491.748 270.407H491.834C492.271 269.641 492.797 269.05 493.413 268.635C494.029 268.219 494.706 268.012 495.443 268.012ZM511.761 265.702C510.035 265.702 508.671 266.279 507.668 267.432C506.673 268.577 506.175 270.149 506.175 272.147C506.175 274.203 506.655 275.793 507.614 276.917C508.581 278.034 509.956 278.593 511.739 278.593C512.835 278.593 514.085 278.396 515.488 278.002V279.603C514.4 280.011 513.057 280.215 511.46 280.215C509.147 280.215 507.36 279.513 506.1 278.109C504.846 276.706 504.22 274.711 504.22 272.126C504.22 270.507 504.521 269.09 505.122 267.872C505.731 266.655 506.604 265.716 507.743 265.058C508.889 264.399 510.235 264.069 511.782 264.069C513.429 264.069 514.869 264.37 516.101 264.972L515.327 266.54C514.138 265.981 512.95 265.702 511.761 265.702ZM520.43 280H518.646V263.285H520.43V280ZM525.994 280H524.211V268.227H525.994V280ZM524.061 265.036C524.061 264.628 524.161 264.331 524.361 264.145C524.562 263.951 524.812 263.854 525.113 263.854C525.4 263.854 525.647 263.951 525.854 264.145C526.062 264.338 526.166 264.635 526.166 265.036C526.166 265.437 526.062 265.738 525.854 265.938C525.647 266.132 525.4 266.229 525.113 266.229C524.812 266.229 524.562 266.132 524.361 265.938C524.161 265.738 524.061 265.437 524.061 265.036ZM534.749 280.215C533.009 280.215 531.634 279.685 530.624 278.625C529.621 277.565 529.12 276.093 529.12 274.21C529.12 272.312 529.586 270.805 530.517 269.688C531.455 268.57 532.712 268.012 534.287 268.012C535.762 268.012 536.93 268.499 537.789 269.473C538.648 270.439 539.078 271.718 539.078 273.308V274.436H530.968C531.004 275.818 531.351 276.867 532.01 277.583C532.676 278.299 533.61 278.657 534.813 278.657C536.081 278.657 537.334 278.392 538.573 277.862V279.452C537.943 279.724 537.345 279.918 536.779 280.032C536.221 280.154 535.544 280.215 534.749 280.215ZM534.266 269.505C533.32 269.505 532.565 269.813 531.999 270.429C531.44 271.045 531.111 271.897 531.011 272.985H537.166C537.166 271.861 536.915 271.002 536.414 270.407C535.913 269.806 535.197 269.505 534.266 269.505ZM550.186 280V272.384C550.186 271.424 549.967 270.708 549.53 270.235C549.093 269.763 548.41 269.526 547.479 269.526C546.247 269.526 545.344 269.859 544.771 270.525C544.199 271.191 543.912 272.291 543.912 273.823V280H542.129V268.227H543.579L543.869 269.838H543.955C544.32 269.258 544.832 268.81 545.491 268.495C546.15 268.173 546.884 268.012 547.693 268.012C549.111 268.012 550.178 268.355 550.895 269.043C551.611 269.723 551.969 270.815 551.969 272.319V280H550.186ZM559.445 278.743C559.76 278.743 560.065 278.722 560.358 278.679C560.652 278.629 560.885 278.578 561.057 278.528V279.893C560.863 279.986 560.577 280.061 560.197 280.118C559.825 280.183 559.488 280.215 559.188 280.215C556.91 280.215 555.771 279.015 555.771 276.616V269.612H554.085V268.753L555.771 268.012L556.523 265.498H557.555V268.227H560.971V269.612H557.555V276.541C557.555 277.25 557.723 277.794 558.06 278.174C558.396 278.553 558.858 278.743 559.445 278.743ZM578.158 280H569.403V264.295H578.158V265.917H571.229V270.977H577.739V272.588H571.229V278.367H578.158V280ZM584.217 273.974L580.124 268.227H582.154L585.259 272.738L588.353 268.227H590.361L586.269 273.974L590.576 280H588.557L585.259 275.23L581.929 280H579.909L584.217 273.974ZM598.396 280.215C597.63 280.215 596.928 280.075 596.291 279.796C595.661 279.509 595.131 279.073 594.701 278.485H594.572C594.658 279.173 594.701 279.825 594.701 280.44V285.285H592.918V268.227H594.368L594.615 269.838H594.701C595.16 269.193 595.693 268.728 596.302 268.441C596.91 268.155 597.609 268.012 598.396 268.012C599.958 268.012 601.161 268.545 602.006 269.612C602.858 270.679 603.284 272.176 603.284 274.103C603.284 276.036 602.851 277.54 601.984 278.614C601.125 279.681 599.929 280.215 598.396 280.215ZM598.139 269.526C596.936 269.526 596.065 269.859 595.528 270.525C594.991 271.191 594.715 272.251 594.701 273.705V274.103C594.701 275.757 594.977 276.942 595.528 277.658C596.08 278.367 596.964 278.722 598.182 278.722C599.199 278.722 599.993 278.31 600.566 277.486C601.146 276.663 601.437 275.528 601.437 274.081C601.437 272.613 601.146 271.489 600.566 270.708C599.993 269.92 599.184 269.526 598.139 269.526ZM611.384 280.215C609.644 280.215 608.269 279.685 607.259 278.625C606.256 277.565 605.755 276.093 605.755 274.21C605.755 272.312 606.22 270.805 607.151 269.688C608.09 268.57 609.346 268.012 610.922 268.012C612.397 268.012 613.564 268.499 614.424 269.473C615.283 270.439 615.713 271.718 615.713 273.308V274.436H607.603C607.638 275.818 607.986 276.867 608.645 277.583C609.311 278.299 610.245 278.657 611.448 278.657C612.716 278.657 613.969 278.392 615.208 277.862V279.452C614.578 279.724 613.98 279.918 613.414 280.032C612.855 280.154 612.179 280.215 611.384 280.215ZM610.9 269.505C609.955 269.505 609.2 269.813 608.634 270.429C608.075 271.045 607.746 271.897 607.646 272.985H613.801C613.801 271.861 613.55 271.002 613.049 270.407C612.548 269.806 611.831 269.505 610.9 269.505ZM624.135 268.012C624.658 268.012 625.127 268.055 625.542 268.141L625.295 269.795C624.808 269.688 624.378 269.634 624.006 269.634C623.053 269.634 622.237 270.021 621.557 270.794C620.883 271.567 620.547 272.531 620.547 273.684V280H618.764V268.227H620.235L620.439 270.407H620.525C620.962 269.641 621.489 269.05 622.104 268.635C622.72 268.219 623.397 268.012 624.135 268.012ZM629.527 280H627.744V268.227H629.527V280ZM627.594 265.036C627.594 264.628 627.694 264.331 627.895 264.145C628.095 263.951 628.346 263.854 628.646 263.854C628.933 263.854 629.18 263.951 629.388 264.145C629.595 264.338 629.699 264.635 629.699 265.036C629.699 265.437 629.595 265.738 629.388 265.938C629.18 266.132 628.933 266.229 628.646 266.229C628.346 266.229 628.095 266.132 627.895 265.938C627.694 265.738 627.594 265.437 627.594 265.036ZM638.282 280.215C636.542 280.215 635.167 279.685 634.157 278.625C633.155 277.565 632.653 276.093 632.653 274.21C632.653 272.312 633.119 270.805 634.05 269.688C634.988 268.57 636.245 268.012 637.82 268.012C639.296 268.012 640.463 268.499 641.322 269.473C642.182 270.439 642.611 271.718 642.611 273.308V274.436H634.501C634.537 275.818 634.884 276.867 635.543 277.583C636.209 278.299 637.144 278.657 638.347 278.657C639.614 278.657 640.868 278.392 642.106 277.862V279.452C641.476 279.724 640.878 279.918 640.312 280.032C639.754 280.154 639.077 280.215 638.282 280.215ZM637.799 269.505C636.854 269.505 636.098 269.813 635.532 270.429C634.974 271.045 634.644 271.897 634.544 272.985H640.699C640.699 271.861 640.449 271.002 639.947 270.407C639.446 269.806 638.73 269.505 637.799 269.505ZM653.719 280V272.384C653.719 271.424 653.5 270.708 653.063 270.235C652.627 269.763 651.943 269.526 651.012 269.526C649.78 269.526 648.878 269.859 648.305 270.525C647.732 271.191 647.445 272.291 647.445 273.823V280H645.662V268.227H647.112L647.402 269.838H647.488C647.854 269.258 648.366 268.81 649.024 268.495C649.683 268.173 650.417 268.012 651.227 268.012C652.645 268.012 653.712 268.355 654.428 269.043C655.144 269.723 655.502 270.815 655.502 272.319V280H653.719ZM663.881 280.215C662.176 280.215 660.855 279.692 659.917 278.646C658.986 277.594 658.521 276.108 658.521 274.188C658.521 272.219 658.993 270.697 659.938 269.623C660.891 268.549 662.244 268.012 663.999 268.012C664.565 268.012 665.131 268.073 665.696 268.194C666.262 268.316 666.706 268.459 667.028 268.624L666.48 270.139C666.087 269.981 665.657 269.852 665.191 269.752C664.726 269.645 664.314 269.591 663.956 269.591C661.564 269.591 660.368 271.116 660.368 274.167C660.368 275.614 660.658 276.724 661.238 277.497C661.826 278.271 662.692 278.657 663.838 278.657C664.819 278.657 665.825 278.446 666.856 278.023V279.603C666.069 280.011 665.077 280.215 663.881 280.215ZM674.634 280.215C672.894 280.215 671.519 279.685 670.509 278.625C669.506 277.565 669.005 276.093 669.005 274.21C669.005 272.312 669.47 270.805 670.401 269.688C671.34 268.57 672.596 268.012 674.172 268.012C675.647 268.012 676.814 268.499 677.674 269.473C678.533 270.439 678.963 271.718 678.963 273.308V274.436H670.853C670.888 275.818 671.236 276.867 671.895 277.583C672.561 278.299 673.495 278.657 674.698 278.657C675.966 278.657 677.219 278.392 678.458 277.862V279.452C677.828 279.724 677.23 279.918 676.664 280.032C676.105 280.154 675.429 280.215 674.634 280.215ZM674.15 269.505C673.205 269.505 672.45 269.813 671.884 270.429C671.325 271.045 670.996 271.897 670.896 272.985H677.051C677.051 271.861 676.8 271.002 676.299 270.407C675.798 269.806 675.081 269.505 674.15 269.505ZM681.756 278.861C681.756 278.382 681.863 278.02 682.078 277.776C682.3 277.526 682.615 277.4 683.023 277.4C683.439 277.4 683.761 277.526 683.99 277.776C684.227 278.02 684.345 278.382 684.345 278.861C684.345 279.327 684.227 279.685 683.99 279.936C683.754 280.186 683.432 280.312 683.023 280.312C682.658 280.312 682.354 280.201 682.11 279.979C681.874 279.749 681.756 279.377 681.756 278.861Z" fill="white"/>
</svg>
