<svg width="51" height="47" viewBox="0 0 51 47" fill="none" xmlns="http://www.w3.org/2000/svg">
<path d="M3.9712 26.5181L2.6569 27.701C2.06637 28.2325 1.56806 28.8582 1.18223 29.5527C0.837228 30.1737 0.586208 30.8424 0.437358 31.537L0.224102 32.5322C0.0751177 33.2275 0 33.9366 0 34.6476V35.0779C0 36.1267 0.207697 37.1652 0.611108 38.1334C0.937011 38.9156 1.38595 39.6406 1.9409 40.2809L2.24701 40.6341C3.38003 41.9414 4.80929 42.9588 6.41553 43.6013L7.75857 44.1385C8.90719 44.598 10.103 44.9292 11.3243 45.1262L16.3261 45.9329L20.0665 46.2134C23.4267 46.4654 26.8045 46.0895 30.0271 45.1048C32.0642 44.4824 34.0209 43.6223 35.8569 42.5423L38.0787 41.2353C39.7512 40.2515 41.3145 39.093 42.7425 37.7793L43.6657 36.93C45.2841 35.441 46.6446 33.6943 47.692 31.7606L48.0291 31.1383C48.6589 29.9756 49.1289 28.7331 49.4262 27.4447L49.5055 27.101C50.0274 24.8394 49.9511 22.4809 49.2842 20.2577C48.6489 18.14 47.4772 16.1922 45.9137 14.6288C44.8837 13.5988 43.6809 12.7281 42.378 12.0766L41.4088 11.592C39.5675 10.6714 37.5371 10.1921 35.4785 10.1921C33.1919 10.1921 30.9441 10.7834 28.9535 11.9085L28.2412 12.3111C27.3596 12.8094 26.5261 13.3884 25.7515 14.0407L24.861 14.7906C23.4397 15.9875 21.9063 17.0445 20.282 17.9468L19.5382 18.3601C17.6942 19.3845 15.7674 20.2524 13.7782 20.9544L13.0167 21.2232L12.2162 21.5834C9.81412 22.6644 7.52469 23.9799 5.38125 25.511L3.9712 26.5181Z" fill="#CFF2EE"/>
<path d="M8.35354 12.5101L7.84164 12.8254L6.11738 14.051C5.31927 14.6183 4.62527 15.3193 4.06606 16.1231C3.28838 17.2409 2.79089 18.5293 2.61552 19.8796L2.20618 23.0316V24.0616C2.20618 26.3743 2.91415 28.6316 4.23494 30.53L7.06549 33.7399C8.47913 35.343 10.0863 36.7644 11.85 37.9717L11.9835 38.063C14.1674 39.5578 16.5763 40.6938 19.1189 41.428L19.7273 41.6037C21.5625 42.1336 23.4632 42.4025 25.3734 42.4025H26.1019C28.1861 42.4025 30.2515 42.0084 32.1893 41.2411C34.4153 40.3596 36.4232 39.0051 38.0744 37.2714L40.5273 34.6958L41.7166 33.1259C42.9926 31.4416 43.6832 29.3864 43.6832 27.2733C43.6832 26.257 43.5233 25.247 43.2095 24.2804L42.4661 21.9909C41.9292 20.3371 41.104 18.7914 40.0286 17.4251C38.7232 15.7666 37.077 14.4077 35.2011 13.4403L31.1671 11.3598C29.3028 10.3983 27.3044 9.72274 25.2391 9.35574C23.417 9.03196 21.5599 8.95143 19.7166 9.11626L18.1511 9.25625C16.3937 9.4134 14.6609 9.7767 12.9883 10.3387C11.3659 10.8839 9.81086 11.6124 8.35354 12.5101Z" fill="#55ACEE"/>
<path d="M21.7461 26.5752C21.7461 28.8193 21.377 30.4805 20.6387 31.5586C19.9062 32.6367 18.7754 33.1758 17.2461 33.1758C15.7637 33.1758 14.6445 32.6191 13.8887 31.5059C13.1387 30.3926 12.7637 28.749 12.7637 26.5752C12.7637 24.3076 13.1299 22.6377 13.8623 21.5654C14.5947 20.4873 15.7227 19.9482 17.2461 19.9482C18.7285 19.9482 19.8477 20.5107 20.6035 21.6357C21.3652 22.7607 21.7461 24.4072 21.7461 26.5752ZM15.4619 26.5752C15.4619 28.1514 15.5967 29.2822 15.8662 29.9678C16.1416 30.6475 16.6016 30.9873 17.2461 30.9873C17.8789 30.9873 18.3359 30.6416 18.6172 29.9502C18.8984 29.2588 19.0391 28.1338 19.0391 26.5752C19.0391 24.999 18.8955 23.8682 18.6084 23.1826C18.3271 22.4912 17.873 22.1455 17.2461 22.1455C16.6074 22.1455 16.1504 22.4912 15.875 23.1826C15.5996 23.8682 15.4619 24.999 15.4619 26.5752ZM30.372 33H27.6562V25.5645L27.6826 24.3428L27.7265 23.0068C27.2754 23.458 26.9619 23.7539 26.7861 23.8945L25.3095 25.0811L24 23.4463L28.1396 20.1504H30.372V33Z" fill="white"/>
</svg>
