<svg width="51" height="47" viewBox="0 0 51 47" fill="none" xmlns="http://www.w3.org/2000/svg">
<path d="M3.9712 26.5181L2.6569 27.7009C2.06637 28.2324 1.56806 28.8581 1.18223 29.5526C0.837228 30.1736 0.586208 30.8423 0.437358 31.537L0.224102 32.5322C0.0751177 33.2274 0 33.9365 0 34.6475V35.0778C0 36.1267 0.207697 37.1652 0.611108 38.1334C0.937011 38.9155 1.38595 39.6405 1.9409 40.2808L2.24701 40.6341C3.38003 41.9414 4.80929 42.9587 6.41553 43.6012L7.75857 44.1384C8.90719 44.5979 10.103 44.9291 11.3243 45.1261L16.3261 45.9328L20.0665 46.2134C23.4267 46.4654 26.8045 46.0894 30.0271 45.1048C32.0642 44.4823 34.0209 43.6222 35.8569 42.5423L38.0787 41.2353C39.7512 40.2515 41.3145 39.093 42.7425 37.7792L43.6657 36.9299C45.2841 35.441 46.6446 33.6942 47.692 31.7606L48.0291 31.1382C48.6589 29.9755 49.1289 28.7331 49.4262 27.4446L49.5055 27.101C50.0274 24.8394 49.9511 22.4808 49.2842 20.2577C48.6489 18.1399 47.4772 16.1922 45.9137 14.6288C44.8837 13.5987 43.6809 12.728 42.378 12.0766L41.4088 11.592C39.5675 10.6713 37.5371 10.192 35.4785 10.192C33.1919 10.192 30.9441 10.7833 28.9535 11.9084L28.2412 12.311C27.3596 12.8093 26.5261 13.3884 25.7515 14.0407L24.861 14.7906C23.4397 15.9874 21.9063 17.0444 20.282 17.9468L19.5382 18.36C17.6942 19.3845 15.7674 20.2523 13.7782 20.9544L13.0167 21.2231L12.2162 21.5834C9.81412 22.6643 7.52469 23.9799 5.38125 25.5109L3.9712 26.5181Z" fill="#CFF2EE"/>
<path d="M8.35354 12.5101L7.84164 12.8254L6.11738 14.051C5.31927 14.6183 4.62527 15.3193 4.06606 16.1231C3.28838 17.2409 2.79089 18.5293 2.61552 19.8796L2.20618 23.0316V24.0616C2.20618 26.3743 2.91415 28.6316 4.23494 30.53L7.06549 33.7399C8.47913 35.343 10.0863 36.7644 11.85 37.9717L11.9835 38.063C14.1674 39.5578 16.5763 40.6938 19.1189 41.428L19.7273 41.6037C21.5625 42.1336 23.4632 42.4025 25.3734 42.4025H26.1019C28.1861 42.4025 30.2515 42.0084 32.1893 41.2411C34.4153 40.3596 36.4232 39.0051 38.0744 37.2714L40.5273 34.6958L41.7166 33.1259C42.9926 31.4416 43.6832 29.3864 43.6832 27.2733C43.6832 26.257 43.5233 25.247 43.2095 24.2804L42.4661 21.9909C41.9292 20.3371 41.104 18.7914 40.0286 17.4251C38.7232 15.7666 37.077 14.4077 35.2011 13.4403L31.1671 11.3598C29.3028 10.3983 27.3044 9.72274 25.2391 9.35574C23.417 9.03196 21.5599 8.95143 19.7166 9.11626L18.1511 9.25625C16.3937 9.4134 14.6609 9.7767 12.9883 10.3387C11.3659 10.8839 9.81086 11.6124 8.35354 12.5101Z" fill="#55ACEE"/>
<path d="M21.7461 26.5752C21.7461 28.8193 21.377 30.4805 20.6387 31.5586C19.9062 32.6367 18.7754 33.1758 17.2461 33.1758C15.7637 33.1758 14.6445 32.6191 13.8887 31.5059C13.1387 30.3926 12.7637 28.749 12.7637 26.5752C12.7637 24.3076 13.1299 22.6377 13.8623 21.5654C14.5947 20.4873 15.7227 19.9482 17.2461 19.9482C18.7285 19.9482 19.8477 20.5107 20.6035 21.6357C21.3652 22.7607 21.7461 24.4072 21.7461 26.5752ZM15.4619 26.5752C15.4619 28.1514 15.5967 29.2822 15.8662 29.9678C16.1416 30.6475 16.6016 30.9873 17.2461 30.9873C17.8789 30.9873 18.3359 30.6416 18.6172 29.9502C18.8984 29.2588 19.0391 28.1338 19.0391 26.5752C19.0391 24.999 18.8955 23.8682 18.6084 23.1826C18.3271 22.4912 17.873 22.1455 17.2461 22.1455C16.6074 22.1455 16.1504 22.4912 15.875 23.1826C15.5996 23.8682 15.4619 24.999 15.4619 26.5752ZM32.1386 23.0244C32.1386 23.8271 31.8955 24.5098 31.4091 25.0723C30.9228 25.6348 30.2402 26.0215 29.3613 26.2324V26.2852C30.3984 26.4141 31.1836 26.7305 31.7168 27.2344C32.25 27.7324 32.5166 28.4062 32.5166 29.2559C32.5166 30.4922 32.0683 31.4561 31.1718 32.1475C30.2754 32.833 28.9951 33.1758 27.331 33.1758C25.9365 33.1758 24.7002 32.9443 23.622 32.4814V30.1699C24.1201 30.4219 24.6679 30.627 25.2656 30.7852C25.8632 30.9434 26.455 31.0225 27.041 31.0225C27.9375 31.0225 28.5996 30.8701 29.0273 30.5654C29.455 30.2607 29.6689 29.7715 29.6689 29.0977C29.6689 28.4941 29.4228 28.0664 28.9306 27.8145C28.4384 27.5625 27.6533 27.4365 26.5752 27.4365H25.5996V25.3535H26.5927C27.5888 25.3535 28.3154 25.2246 28.7724 24.9668C29.2353 24.7031 29.4668 24.2549 29.4668 23.6221C29.4668 22.6494 28.8574 22.1631 27.6386 22.1631C27.2168 22.1631 26.7861 22.2334 26.3466 22.374C25.913 22.5146 25.4296 22.7578 24.8964 23.1035L23.6396 21.2314C24.8115 20.3877 26.2089 19.9658 27.832 19.9658C29.1621 19.9658 30.2109 20.2354 30.9785 20.7744C31.7519 21.3135 32.1386 22.0635 32.1386 23.0244Z" fill="white"/>
</svg>
