<svg width="246" height="35" viewBox="0 0 246 35" fill="none" xmlns="http://www.w3.org/2000/svg">
<path d="M31.8848 10.7158H36.123C38.0892 10.7158 39.5085 11.0023 40.3809 11.5752C41.2598 12.1481 41.6992 13.0531 41.6992 14.29C41.6992 15.1234 41.4844 15.8167 41.0547 16.3701C40.625 16.9235 40.0065 17.2718 39.1992 17.415V17.5127C40.2018 17.7015 40.9375 18.0758 41.4062 18.6357C41.8815 19.1891 42.1191 19.9411 42.1191 20.8916C42.1191 22.1742 41.6699 23.18 40.7715 23.9092C39.8796 24.6318 38.6361 24.9932 37.041 24.9932H31.8848V10.7158ZM34.2188 16.6143H36.4648C37.4414 16.6143 38.1543 16.4613 38.6035 16.1553C39.0527 15.8428 39.2773 15.3154 39.2773 14.5732C39.2773 13.9027 39.0332 13.4176 38.5449 13.1182C38.0632 12.8187 37.2949 12.6689 36.2402 12.6689H34.2188V16.6143ZM34.2188 18.5088V23.0303H36.6992C37.6758 23.0303 38.4115 22.8447 38.9062 22.4736C39.4076 22.096 39.6582 21.5036 39.6582 20.6963C39.6582 19.9541 39.4043 19.404 38.8965 19.0459C38.3887 18.6878 37.6172 18.5088 36.582 18.5088H34.2188ZM49.5605 25.1885C47.8809 25.1885 46.5658 24.7002 45.6152 23.7236C44.6712 22.7406 44.1992 21.3896 44.1992 19.6709C44.1992 17.9066 44.6387 16.5199 45.5176 15.5107C46.3965 14.5016 47.6042 13.9971 49.1406 13.9971C50.5664 13.9971 51.6927 14.43 52.5195 15.2959C53.3464 16.1618 53.7598 17.3532 53.7598 18.8701V20.1104H46.5625C46.5951 21.1585 46.8783 21.9658 47.4121 22.5322C47.946 23.0921 48.6979 23.3721 49.668 23.3721C50.306 23.3721 50.8984 23.3135 51.4453 23.1963C51.9987 23.0726 52.5911 22.8708 53.2227 22.5908V24.4561C52.6628 24.723 52.0964 24.9118 51.5234 25.0225C50.9505 25.1331 50.2962 25.1885 49.5605 25.1885ZM49.1406 15.7354C48.4115 15.7354 47.8255 15.9665 47.3828 16.4287C46.9466 16.891 46.6862 17.5648 46.6016 18.4502H51.5039C51.4909 17.5583 51.276 16.8844 50.8594 16.4287C50.4427 15.9665 49.8698 15.7354 49.1406 15.7354ZM60.3906 23.333C60.9505 23.333 61.5104 23.2451 62.0703 23.0693V24.7979C61.8164 24.9085 61.4876 24.9997 61.084 25.0713C60.6868 25.1494 60.2734 25.1885 59.8438 25.1885C57.6693 25.1885 56.582 24.0426 56.582 21.751V15.9307H55.1074V14.915L56.6895 14.0752L57.4707 11.79H58.8867V14.1924H61.9629V15.9307H58.8867V21.7119C58.8867 22.2653 59.0234 22.6755 59.2969 22.9424C59.5768 23.2028 59.9414 23.333 60.3906 23.333ZM68.2617 23.333C68.8216 23.333 69.3815 23.2451 69.9414 23.0693V24.7979C69.6875 24.9085 69.3587 24.9997 68.9551 25.0713C68.5579 25.1494 68.1445 25.1885 67.7148 25.1885C65.5404 25.1885 64.4531 24.0426 64.4531 21.751V15.9307H62.9785V14.915L64.5605 14.0752L65.3418 11.79H66.7578V14.1924H69.834V15.9307H66.7578V21.7119C66.7578 22.2653 66.8945 22.6755 67.168 22.9424C67.4479 23.2028 67.8125 23.333 68.2617 23.333ZM76.8262 25.1885C75.1465 25.1885 73.8314 24.7002 72.8809 23.7236C71.9368 22.7406 71.4648 21.3896 71.4648 19.6709C71.4648 17.9066 71.9043 16.5199 72.7832 15.5107C73.6621 14.5016 74.8698 13.9971 76.4062 13.9971C77.832 13.9971 78.9583 14.43 79.7852 15.2959C80.612 16.1618 81.0254 17.3532 81.0254 18.8701V20.1104H73.8281C73.8607 21.1585 74.1439 21.9658 74.6777 22.5322C75.2116 23.0921 75.9635 23.3721 76.9336 23.3721C77.5716 23.3721 78.1641 23.3135 78.7109 23.1963C79.2643 23.0726 79.8568 22.8708 80.4883 22.5908V24.4561C79.9284 24.723 79.362 24.9118 78.7891 25.0225C78.2161 25.1331 77.5618 25.1885 76.8262 25.1885ZM76.4062 15.7354C75.6771 15.7354 75.0911 15.9665 74.6484 16.4287C74.2122 16.891 73.9518 17.5648 73.8672 18.4502H78.7695C78.7565 17.5583 78.5417 16.8844 78.125 16.4287C77.7083 15.9665 77.1354 15.7354 76.4062 15.7354ZM89.1113 13.9971C89.5736 13.9971 89.9544 14.0296 90.2539 14.0947L90.0293 16.2334C89.7038 16.1553 89.3652 16.1162 89.0137 16.1162C88.0957 16.1162 87.3503 16.4157 86.7773 17.0146C86.2109 17.6136 85.9277 18.3916 85.9277 19.3486V24.9932H83.6328V14.1924H85.4297L85.7324 16.0967H85.8496C86.2077 15.4521 86.6732 14.9411 87.2461 14.5635C87.8255 14.1859 88.4473 13.9971 89.1113 13.9971ZM166.768 23.7725C166.768 23.2972 166.891 22.9326 167.139 22.6787C167.386 22.4248 167.744 22.2979 168.213 22.2979C168.688 22.2979 169.049 22.4313 169.297 22.6982C169.544 22.9587 169.668 23.3167 169.668 23.7725C169.668 24.2347 169.541 24.6025 169.287 24.876C169.04 25.1429 168.682 25.2764 168.213 25.2764C167.744 25.2764 167.386 25.1429 167.139 24.876C166.891 24.609 166.768 24.2412 166.768 23.7725ZM181.719 24.9932H179.414V18.333C179.414 17.5062 179.258 16.891 178.945 16.4873C178.633 16.0771 178.145 15.8721 177.48 15.8721C176.595 15.8721 175.944 16.1618 175.527 16.7412C175.117 17.3141 174.912 18.2712 174.912 19.6123V24.9932H172.617V14.1924H174.414L174.736 15.6084H174.854C175.153 15.0941 175.586 14.6969 176.152 14.417C176.725 14.137 177.354 13.9971 178.037 13.9971C179.697 13.9971 180.798 14.5635 181.338 15.6963H181.494C181.813 15.1624 182.262 14.7458 182.842 14.4463C183.421 14.1468 184.085 13.9971 184.834 13.9971C186.123 13.9971 187.061 14.3226 187.646 14.9736C188.239 15.6247 188.535 16.6175 188.535 17.9521V24.9932H186.24V18.333C186.24 17.5062 186.081 16.891 185.762 16.4873C185.449 16.0771 184.961 15.8721 184.297 15.8721C183.405 15.8721 182.751 16.152 182.334 16.7119C181.924 17.2653 181.719 18.1182 181.719 19.2705V24.9932ZM196.455 25.1885C194.775 25.1885 193.46 24.7002 192.51 23.7236C191.566 22.7406 191.094 21.3896 191.094 19.6709C191.094 17.9066 191.533 16.5199 192.412 15.5107C193.291 14.5016 194.499 13.9971 196.035 13.9971C197.461 13.9971 198.587 14.43 199.414 15.2959C200.241 16.1618 200.654 17.3532 200.654 18.8701V20.1104H193.457C193.49 21.1585 193.773 21.9658 194.307 22.5322C194.84 23.0921 195.592 23.3721 196.562 23.3721C197.201 23.3721 197.793 23.3135 198.34 23.1963C198.893 23.0726 199.486 22.8708 200.117 22.5908V24.4561C199.557 24.723 198.991 24.9118 198.418 25.0225C197.845 25.1331 197.191 25.1885 196.455 25.1885ZM196.035 15.7354C195.306 15.7354 194.72 15.9665 194.277 16.4287C193.841 16.891 193.581 17.5648 193.496 18.4502H198.398C198.385 17.5583 198.171 16.8844 197.754 16.4287C197.337 15.9665 196.764 15.7354 196.035 15.7354Z" fill="white"/>
<path d="M98.584 12.5127C97.2428 12.5127 96.1882 12.988 95.4199 13.9385C94.6517 14.889 94.2676 16.2008 94.2676 17.874C94.2676 19.6253 94.6354 20.9502 95.3711 21.8486C96.1133 22.7471 97.1842 23.1963 98.584 23.1963C99.1895 23.1963 99.7754 23.1377 100.342 23.0205C100.908 22.8968 101.497 22.7406 102.109 22.5518V24.5537C100.99 24.9769 99.7201 25.1885 98.3008 25.1885C96.2109 25.1885 94.6061 24.557 93.4863 23.2939C92.3665 22.0244 91.8066 20.2113 91.8066 17.8545C91.8066 16.3701 92.0768 15.0713 92.6172 13.958C93.1641 12.8447 93.9518 11.9919 94.9805 11.3994C96.0091 10.807 97.2168 10.5107 98.6035 10.5107C100.062 10.5107 101.41 10.8167 102.646 11.4287L101.807 13.3721C101.325 13.1442 100.814 12.9456 100.273 12.7764C99.7396 12.6006 99.1764 12.5127 98.584 12.5127ZM114.521 19.5732C114.521 21.3376 114.069 22.7145 113.164 23.7041C112.259 24.6937 110.999 25.1885 109.385 25.1885C108.376 25.1885 107.484 24.9606 106.709 24.5049C105.934 24.0492 105.339 23.3949 104.922 22.542C104.505 21.6891 104.297 20.6995 104.297 19.5732C104.297 17.8219 104.746 16.4548 105.645 15.4717C106.543 14.4886 107.809 13.9971 109.443 13.9971C111.006 13.9971 112.243 14.5016 113.154 15.5107C114.066 16.5133 114.521 17.8675 114.521 19.5732ZM106.66 19.5732C106.66 22.0667 107.581 23.3135 109.424 23.3135C111.247 23.3135 112.158 22.0667 112.158 19.5732C112.158 17.1058 111.24 15.8721 109.404 15.8721C108.441 15.8721 107.741 16.1911 107.305 16.8291C106.875 17.4671 106.66 18.3818 106.66 19.5732ZM126.67 24.9932H124.365V18.3525C124.365 17.5192 124.196 16.8975 123.857 16.4873C123.525 16.0771 122.995 15.8721 122.266 15.8721C121.296 15.8721 120.586 16.1585 120.137 16.7314C119.688 17.3044 119.463 18.2646 119.463 19.6123V24.9932H117.168V14.1924H118.965L119.287 15.6084H119.404C119.73 15.0941 120.192 14.6969 120.791 14.417C121.39 14.137 122.054 13.9971 122.783 13.9971C125.374 13.9971 126.67 15.3154 126.67 17.9521V24.9932ZM133.887 23.333C134.447 23.333 135.007 23.2451 135.566 23.0693V24.7979C135.312 24.9085 134.984 24.9997 134.58 25.0713C134.183 25.1494 133.77 25.1885 133.34 25.1885C131.165 25.1885 130.078 24.0426 130.078 21.751V15.9307H128.604V14.915L130.186 14.0752L130.967 11.79H132.383V14.1924H135.459V15.9307H132.383V21.7119C132.383 22.2653 132.52 22.6755 132.793 22.9424C133.073 23.2028 133.438 23.333 133.887 23.333ZM144.492 24.9932L144.033 23.4893H143.955C143.434 24.1468 142.91 24.596 142.383 24.8369C141.855 25.0713 141.178 25.1885 140.352 25.1885C139.29 25.1885 138.46 24.902 137.861 24.3291C137.269 23.7562 136.973 22.9456 136.973 21.8975C136.973 20.7842 137.386 19.9443 138.213 19.3779C139.04 18.8115 140.299 18.5023 141.992 18.4502L143.857 18.3916V17.8154C143.857 17.1253 143.695 16.611 143.369 16.2725C143.05 15.9274 142.552 15.7549 141.875 15.7549C141.322 15.7549 140.791 15.8363 140.283 15.999C139.775 16.1618 139.287 16.3538 138.818 16.5752L138.076 14.9346C138.662 14.6286 139.303 14.3975 140 14.2412C140.697 14.0785 141.354 13.9971 141.973 13.9971C143.346 13.9971 144.382 14.2965 145.078 14.8955C145.781 15.4945 146.133 16.4352 146.133 17.7178V24.9932H144.492ZM141.074 23.4307C141.908 23.4307 142.575 23.1995 143.076 22.7373C143.584 22.2686 143.838 21.6143 143.838 20.7744V19.8369L142.451 19.8955C141.37 19.9346 140.583 20.1169 140.088 20.4424C139.6 20.7614 139.355 21.2529 139.355 21.917C139.355 22.3988 139.499 22.7731 139.785 23.04C140.072 23.3005 140.501 23.4307 141.074 23.4307ZM153.691 25.1885C152.057 25.1885 150.814 24.7132 149.961 23.7627C149.115 22.8057 148.691 21.4352 148.691 19.6514C148.691 17.835 149.134 16.4385 150.02 15.4619C150.911 14.4854 152.197 13.9971 153.877 13.9971C155.016 13.9971 156.042 14.2087 156.953 14.6318L156.26 16.4775C155.29 16.0999 154.489 15.9111 153.857 15.9111C151.989 15.9111 151.055 17.1514 151.055 19.6318C151.055 20.8428 151.286 21.7542 151.748 22.3662C152.217 22.9717 152.9 23.2744 153.799 23.2744C154.821 23.2744 155.788 23.0205 156.699 22.5127V24.5146C156.289 24.7555 155.85 24.9281 155.381 25.0322C154.919 25.1364 154.355 25.1885 153.691 25.1885ZM163.262 23.333C163.822 23.333 164.382 23.2451 164.941 23.0693V24.7979C164.688 24.9085 164.359 24.9997 163.955 25.0713C163.558 25.1494 163.145 25.1885 162.715 25.1885C160.54 25.1885 159.453 24.0426 159.453 21.751V15.9307H157.979V14.915L159.561 14.0752L160.342 11.79H161.758V14.1924H164.834V15.9307H161.758V21.7119C161.758 22.2653 161.895 22.6755 162.168 22.9424C162.448 23.2028 162.812 23.333 163.262 23.333Z" fill="#55ACEE"/>
<path d="M5.59644 0H17.7514L16.5531 0.6026L15.5944 0.96416L14.6358 1.44624L13.4375 2.04884L12.1193 2.89248L10.5615 4.2182L9.60285 5.18236L8.76403 6.14652L8.04504 7.2312L7.20622 8.67744L6.60707 9.88264L6.00791 11.3289L5.64842 12.5341L5.28892 13.8598L5.07617 15.1437C5.05826 15.2517 5.04926 15.3611 5.04926 15.4706V16.6318V18.6806L5.28892 21.091L5.72 23.042C5.75207 23.1871 5.80021 23.3282 5.86353 23.4627L6.84673 25.5503L8.08006 27.6928C8.1365 27.7908 8.20116 27.8839 8.27335 27.971L9.8588 29.8845C9.92772 29.9677 10.0033 30.0452 10.0847 30.1161L11.7598 31.5763L14.1564 33.143L18.1109 34.9508L5.27347 34.3537C4.72638 34.3283 4.18611 34.2217 3.67034 34.0375C1.46927 33.2514 0 31.1665 0 28.8293V5.59644C0 3.13155 1.61269 0.956872 3.97138 0.241132C4.49826 0.0812525 5.04584 0 5.59644 0Z" fill="white"/>
<circle cx="15.154" cy="18.0137" r="4.03279" fill="#55ACEE"/>
</svg>
