<svg width="30" height="20" viewBox="0 0 30 20" fill="none" xmlns="http://www.w3.org/2000/svg">
<path d="M28.5288 10.8334H1.20092C0.53769 10.8334 0 10.2873 0 9.6135C0 8.93974 0.53769 8.39362 1.20092 8.39362H28.5288C29.1921 8.39362 29.7297 8.93974 29.7297 9.6135C29.7297 10.2872 29.1921 10.8334 28.5288 10.8334Z" fill="#F2F2F2"/>
<path d="M28.5288 20H1.20092C0.53769 20 0 19.4538 0 18.7801C0 18.1064 0.53769 17.5603 1.20092 17.5603H28.5288C29.1921 17.5603 29.7297 18.1064 29.7297 18.7801C29.7297 19.4538 29.1921 20 28.5288 20Z" fill="#F2F2F2"/>
<path d="M28.5288 2.4397H1.20092C0.53769 2.4397 0 1.89358 0 1.21982C0 0.546067 0.53769 -5.19753e-05 1.20092 -5.19753e-05H28.5288C29.1921 -5.19753e-05 29.7297 0.546067 29.7297 1.21982C29.7297 1.89358 29.1921 2.4397 28.5288 2.4397Z" fill="#F2F2F2"/>
</svg>
