<svg width="51" height="39" viewBox="0 0 51 39" fill="none" xmlns="http://www.w3.org/2000/svg">
<path d="M3.9712 18.5181L2.6569 19.701C2.06637 20.2325 1.56806 20.8582 1.18223 21.5527C0.837228 22.1737 0.586208 22.8424 0.437358 23.537L0.224102 24.5322C0.0751177 25.2275 0 25.9366 0 26.6476V27.0779C0 28.1267 0.207697 29.1652 0.611108 30.1334C0.937011 30.9156 1.38595 31.6406 1.9409 32.2809L2.24701 32.6341C3.38003 33.9414 4.80929 34.9588 6.41553 35.6013L7.75857 36.1385C8.90719 36.598 10.103 36.9292 11.3243 37.1262L16.3261 37.9329L20.0665 38.2134C23.4267 38.4654 26.8045 38.0895 30.0271 37.1048C32.0642 36.4824 34.0209 35.6223 35.8569 34.5423L38.0787 33.2353C39.7512 32.2515 41.3145 31.093 42.7425 29.7793L43.6657 28.93C45.2841 27.441 46.6446 25.6943 47.692 23.7606L48.0291 23.1383C48.6589 21.9756 49.1289 20.7331 49.4262 19.4447L49.5055 19.101C50.0274 16.8394 49.9511 14.4809 49.2842 12.2577C48.6489 10.14 47.4772 8.19225 45.9137 6.62883C44.8837 5.59881 43.6809 4.72806 42.378 4.07662L41.4088 3.59204C39.5675 2.67138 37.5371 2.19208 35.4785 2.19208C33.1919 2.19208 30.9441 2.78336 28.9535 3.9085L28.2412 4.31111C27.3596 4.80941 26.5261 5.38843 25.7515 6.04074L24.861 6.79063C23.4397 7.9875 21.9063 9.04447 20.282 9.94685L19.5382 10.3601C17.6942 11.3845 15.7674 12.2524 13.7782 12.9544L13.0167 13.2232L12.2162 13.5834C9.81412 14.6644 7.52469 15.9799 5.38125 17.511L3.9712 18.5181Z" fill="#CFF2EE"/>
<path d="M8.35354 4.51009L7.84164 4.82542L6.11738 6.05098C5.31927 6.61826 4.62527 7.31929 4.06606 8.12307C3.28838 9.24087 2.79089 10.5293 2.61552 11.8796L2.20618 15.0316V16.0616C2.20618 18.3743 2.91415 20.6316 4.23494 22.53L7.06549 25.7399C8.47913 27.343 10.0863 28.7644 11.85 29.9717L11.9835 30.063C14.1674 31.5578 16.5763 32.6938 19.1189 33.428L19.7273 33.6037C21.5625 34.1336 23.4632 34.4025 25.3734 34.4025H26.1019C28.1861 34.4025 30.2515 34.0084 32.1893 33.2411C34.4153 32.3596 36.4232 31.0051 38.0744 29.2714L40.5273 26.6958L41.7166 25.1259C42.9926 23.4416 43.6832 21.3864 43.6832 19.2733C43.6832 18.257 43.5233 17.247 43.2095 16.2804L42.4661 13.9909C41.9292 12.3371 41.104 10.7914 40.0286 9.4251C38.7232 7.76658 37.077 6.40768 35.2011 5.44025L31.1671 3.35981C29.3028 2.39832 27.3044 1.72274 25.2391 1.35574C23.417 1.03196 21.5599 0.951428 19.7166 1.11626L18.1511 1.25625C16.3937 1.4134 14.6609 1.7767 12.9883 2.33868C11.3659 2.88385 9.81086 3.61236 8.35354 4.51009Z" fill="#55ACEE"/>
</svg>
