<svg width="48" height="48" viewBox="0 0 48 48" fill="none" xmlns="http://www.w3.org/2000/svg">
<g opacity="0.2">
<path d="M39.4285 48H8.57139C3.83986 47.9944 0.005625 44.1601 0 39.4286V8.57149C0.005625 3.83997 3.83986 0.00572586 8.57139 9.91821e-05H39.4285C44.16 0.00572586 47.9943 3.83997 47.9999 8.57149V39.4286C47.9943 44.1601 44.16 47.9944 39.4285 48ZM44.5714 8.57149C44.5714 5.73117 42.2688 3.42863 39.4285 3.42863H8.57139C5.73107 3.42863 3.42854 5.73117 3.42854 8.57149V39.4286C3.42854 42.2689 5.73107 44.5715 8.57139 44.5715H39.4285C42.2688 44.5715 44.5714 42.2689 44.5714 39.4286V8.57149Z" fill="white"/>
<path d="M32.5714 25.7143H25.7142V32.5714C25.7142 33.5183 24.9467 34.2858 23.9999 34.2858C23.0531 34.2858 22.2856 33.5183 22.2856 32.5714V25.7143H15.4285C14.4817 25.7143 13.7142 24.9468 13.7142 24C13.7142 23.0532 14.4817 22.2857 15.4285 22.2857H22.2857V15.4286C22.2857 14.4818 23.0532 13.7143 24 13.7143C24.9468 13.7143 25.7142 14.4819 25.7142 15.4286V22.2857H32.5714C33.5182 22.2857 34.2857 23.0533 34.2857 24.0001C34.2857 24.9469 33.5181 25.7143 32.5714 25.7143Z" fill="white"/>
</g>
</svg>
