<svg width="20" height="20" viewBox="0 0 20 20" fill="none" xmlns="http://www.w3.org/2000/svg">
<path d="M14.2387 13.0042C14.4034 13.0042 14.4857 12.9219 14.4857 12.7573L15.2264 11.1935L13.0865 10.1235L12.4281 11.6873C12.3458 11.7696 12.3458 11.9342 12.4281 12.0165L12.675 12.2634C13.0865 12.4281 13.4157 12.5926 13.7449 12.9218C13.8272 13.0041 13.9095 13.0041 13.9918 13.0041C14.1564 13.0865 14.1564 13.0865 14.2387 13.0042Z" fill="white"/>
<path d="M16.1317 12.0165C15.9671 11.9342 15.7202 12.0988 15.6379 12.2634L14.7325 14.2387C14.7325 14.321 14.6502 14.4033 14.7325 14.4856C14.9794 15.7202 14.321 17.037 13.6626 17.7778C13.0042 18.4362 11.8518 18.8477 10.6173 18.8477C9.46499 18.8477 8.47733 18.4362 7.81892 17.7778C7.73663 17.6955 7.48971 17.4486 7.40738 17.1194C7.32509 17.2017 7.24276 17.3663 7.07818 17.3663H2.96297C2.71605 17.3663 2.55143 17.2017 2.55143 16.9548V11.1934C2.55143 10.9465 2.71605 10.7819 2.96297 10.7819H7.07822C7.32513 10.7819 7.48975 10.9465 7.48975 11.1934V16.4609C7.65437 16.1317 7.90129 15.8847 8.23049 15.8025C8.31279 15.8025 8.31279 15.8025 8.39512 15.7202C8.47741 15.6379 8.64203 15.5556 8.80665 15.391C8.88894 15.3087 8.88894 15.2264 8.88894 15.1441C8.88894 15.0618 8.88894 15.0618 8.97124 14.9794C9.05353 14.8148 9.05353 14.6502 9.13586 14.4033V14.321C9.13586 14.2387 9.13586 14.1564 9.13586 14.0741V11.2757C9.13586 11.0288 9.30048 10.8642 9.54739 10.8642H12.0988L12.428 10.0412H2.88068C2.63376 10.0412 2.46914 9.87654 2.46914 9.62962V6.33745C2.46914 6.09053 2.63376 5.92591 2.88068 5.92591H13.9095C13.9918 5.92591 14.0741 5.92591 14.0741 6.0082L14.8972 4.11522C14.9795 4.03293 14.8972 3.86831 14.8972 3.70368C14.8149 3.62139 14.7326 3.53906 14.568 3.53906H14.4033H2.05764C0.905364 3.53906 0 4.44443 0 5.59667V17.9424C0 19.0946 0.905364 20 2.0576 20H14.4033C15.5556 20 16.4609 19.0946 16.4609 17.9424V12.6749C16.4609 12.2634 16.2963 12.0988 16.1317 12.0165Z" fill="white"/>
<path d="M10.3704 13.6625C9.87658 14.1564 9.71199 14.6502 9.62966 15.0617C9.54737 15.3909 9.46504 15.6379 9.21812 15.8848C8.7243 16.3786 8.47738 16.4609 8.47738 16.4609C8.31276 16.5432 8.23047 16.6255 8.23047 16.7901C8.23047 16.9547 8.23047 17.037 8.31276 17.2017C8.88892 17.7778 9.62962 18.0247 10.535 18.0247C11.5226 18.0247 12.5103 17.6955 13.0041 17.2017C13.8272 16.3786 14.321 14.6502 13.4157 13.7449C12.5926 12.8395 11.2757 12.8395 10.3704 13.6625Z" fill="white"/>
<path d="M18.3539 0C17.7778 0 17.284 0.329206 17.0371 0.823034L13.4156 9.38274L15.5556 10.4527L19.5885 1.97531C19.6708 1.81069 19.7531 1.56378 19.7531 1.3169C19.7531 0.576158 19.0947 0 18.3539 0V0Z" fill="white"/>
</svg>
