<svg width="18" height="18" viewBox="0 0 18 18" fill="none" xmlns="http://www.w3.org/2000/svg">
<path d="M15.8845 5.29968V7.54544L17.3108 6.48595L15.8845 5.29968Z" fill="#55ACEE"/>
<path d="M9.86707 0.314687C9.36449 -0.101865 8.63553 -0.106392 8.13295 0.310159L7.55792 0.799154H10.4512L9.86707 0.314687Z" fill="#55ACEE"/>
<path d="M10.3515 12.7886C9.96215 13.0783 9.49126 13.2368 9.00679 13.2323C8.52233 13.2323 8.04691 13.0783 7.65753 12.7886L0.44485 7.40509V16.6371C0.440322 17.3842 1.04251 17.9954 1.78959 18H16.2104C16.9575 17.9954 17.5597 17.3842 17.5552 16.6371V7.40509L10.3515 12.7886Z" fill="#55ACEE"/>
<path d="M0.693848 6.48597L2.07481 7.51377V5.34045L0.693848 6.48597Z" fill="#55ACEE"/>
<path d="M2.98029 1.70471V8.18842L8.18718 12.0642C8.67165 12.4173 9.33722 12.4173 9.82169 12.0642L14.9788 8.22011V1.70471H2.98029ZM6.19498 5.3269H8.63995C8.88898 5.3269 9.09272 5.53064 9.09272 5.77967C9.09272 6.02869 8.88898 6.23244 8.63995 6.23244H6.19498C5.94595 6.23244 5.7422 6.02869 5.7422 5.77967C5.7422 5.53064 5.94595 5.3269 6.19498 5.3269ZM11.8094 8.49631H6.19498C5.94595 8.49631 5.7422 8.29256 5.7422 8.04353C5.7422 7.79451 5.94595 7.59076 6.19498 7.59076H11.8094C12.0584 7.59076 12.2621 7.79451 12.2621 8.04353C12.2621 8.29256 12.0584 8.49631 11.8094 8.49631Z" fill="#CFF2EE"/>
</svg>
